<?xml version="1.0" encoding="UTF-8"?>
<svg version="1.1" xmlns="http://www.w3.org/2000/svg" width="512" height="512">
<path d="M0 0 C24.12369559 -0.89347021 48.17703838 8.53915864 66.21875 24.21875 C62.95154209 28.60769929 59.66976522 32.97134665 56.21875 37.21875 C52.57546891 35.91254729 49.84024956 34.32264221 46.78125 31.96875 C30.10337019 20.0736797 9.02719178 16.08417435 -10.96875 19.34375 C-31.92927949 23.10738099 -50.07635786 34.41496353 -62.57421875 51.75 C-74.76855937 70.23314399 -78.87443847 91.674848 -75.16015625 113.5390625 C-72.07479494 126.45644185 -65.73401665 139.36302191 -56.78125 149.21875 C-56.13929687 149.95222656 -55.49734375 150.68570313 -54.8359375 151.44140625 C-41.80716612 165.4557489 -22.71811352 174.70452435 -3.5546875 175.5546875 C17.97269396 175.91801883 37.87905121 171.05594775 54.21875 156.21875 C54.74855469 155.65800781 55.27835938 155.09726563 55.82421875 154.51953125 C57.21875 153.21875 57.21875 153.21875 59.21875 153.21875 C59.4765625 152.65285156 59.734375 152.08695313 60 151.50390625 C61.34729114 148.97773537 62.93293175 146.89230633 64.71875 144.65625 C68.86008755 140.09312505 68.86008755 140.09312505 69.96484375 134.42578125 C69.21226524 131.1908757 68.28580552 128.07154758 67.28125 124.90625 C59.69458651 98.5190591 63.52793675 72.82103719 76.03125 48.59375 C88.98919765 25.6631034 110.78826209 10.28918128 135.828125 3.03125 C162.25280594 -3.30093161 189.14992077 1.14744345 212.34277344 15.02929688 C217.02341532 17.99703338 221.15964559 21.46226926 225.21875 25.21875 C225.98316406 25.90324219 226.74757813 26.58773437 227.53515625 27.29296875 C240.17515373 39.18555768 250.92774061 55.98012939 254.21875 73.21875 C254.25864467 74.88493912 254.26843551 76.55282409 254.21875 78.21875 C255.26933594 78.19554688 256.31992187 78.17234375 257.40234375 78.1484375 C277.31279311 77.83051564 277.31279311 77.83051564 285.42578125 84.4375 C289.91792092 88.90027928 292.98866447 94.06740487 293.3429485 100.45961595 C293.34256878 101.2843685 293.34218906 102.10912106 293.34179783 102.95886612 C293.34378888 103.91431391 293.34577993 104.8697617 293.34783131 105.85416245 C293.34491847 106.90084903 293.34200563 107.9475356 293.33900452 109.02593994 C293.34028615 110.69715585 293.34028615 110.69715585 293.34159368 112.4021337 C293.34324544 116.14863916 293.33773203 119.8951002 293.33227539 123.64160156 C293.33199343 126.32196148 293.33210736 129.00231864 293.3327179 131.68267822 C293.33324243 137.4601106 293.33010294 143.2375317 293.32448006 149.01496124 C293.31635559 157.36817034 293.31374886 165.72137398 293.31249207 174.0745866 C293.31030304 187.62687593 293.30364699 201.17915925 293.29418945 214.73144531 C293.28501148 227.89680959 293.27793253 241.06217223 293.27368164 254.22753906 C293.27328756 255.44465692 293.27328756 255.44465692 293.27288551 256.68636301 C293.27158048 260.75694784 293.27031677 264.82753269 293.26907361 268.89811754 C293.25870564 302.67166624 293.2408163 336.44520696 293.21875 370.21875 C302.45875 370.21875 311.69875 370.21875 321.21875 370.21875 C321.31104536 376.56918364 321.3905441 382.91725001 321.43847656 389.26782227 C321.45847691 391.42382737 321.48568624 393.57977904 321.52050781 395.7355957 C321.56953853 398.85120912 321.59183514 401.96609971 321.609375 405.08203125 C321.63002014 406.03145096 321.65066528 406.98087067 321.67193604 407.95906067 C321.67598878 420.30175752 316.84242717 429.05669512 308.6328125 437.93359375 C300.04590443 446.16445929 288.53918147 448.34077602 277.04469585 448.34738445 C276.35413519 448.34913749 275.66357453 448.35089053 274.95208779 448.35269669 C272.64501472 448.35733756 270.3380052 448.35489614 268.03092957 448.35246277 C266.35734564 448.3543317 264.68376214 448.35663274 263.01017934 448.35932809 C258.41625697 448.36544226 253.8223528 448.36531295 249.22842729 448.36413372 C244.27193635 448.36392961 239.31545124 448.36944936 234.35896301 448.37419128 C224.65029868 448.3824962 214.94164041 448.38524605 205.23297282 448.38580366 C197.34134759 448.38627888 189.44972435 448.38833391 181.55809975 448.39150429 C159.18307587 448.40031027 136.80805679 448.40492373 114.43303116 448.40417381 C113.22689602 448.40413386 112.02076087 448.4040939 110.77807617 448.40405273 C109.57046819 448.40401185 108.36286021 448.40397097 107.11865804 448.40392885 C87.54520835 448.40352235 67.97177788 448.41309303 48.39833375 448.4271911 C28.29966193 448.44155324 8.20099949 448.44846138 -11.8976776 448.44759732 C-23.18124719 448.44726531 -34.46479662 448.45001445 -45.74836159 448.46077538 C-55.35483796 448.4698782 -64.96128503 448.47205739 -74.56776384 448.46526595 C-79.46819167 448.46199972 -84.36856326 448.46194784 -89.26898575 448.4706192 C-93.75777335 448.47848043 -98.24646007 448.47705659 -102.73524519 448.46833507 C-104.35633415 448.46679926 -105.97743062 448.46861928 -107.59851072 448.47419515 C-122.26985363 448.52130358 -136.3461388 447.52984721 -147.65625 436.96875 C-156.29265082 427.42436572 -159.11029476 418.04016195 -158.9765625 405.47265625 C-158.9737326 404.46154282 -158.97090271 403.45042938 -158.96798706 402.40867615 C-158.95684889 399.19941048 -158.93175597 395.99043042 -158.90625 392.78125 C-158.89621198 390.59700926 -158.88708757 388.41276411 -158.87890625 386.22851562 C-158.85863741 380.89173022 -158.81947624 375.55555743 -158.78125 370.21875 C-149.54125 370.21875 -140.30125 370.21875 -130.78125 370.21875 C-130.78791183 366.82887817 -130.79457367 363.43900635 -130.80143738 359.94641113 C-130.86114347 328.8555169 -130.90592548 297.76463363 -130.93444599 266.67369512 C-130.93819808 262.59821851 -130.94208105 258.52274203 -130.94604492 254.44726562 C-130.94683185 253.63591689 -130.94761878 252.82456816 -130.94842956 251.9886331 C-130.96148094 238.85403493 -130.98513332 225.71947618 -131.01270839 212.58490139 C-131.04077003 199.10607731 -131.05742787 185.62727386 -131.06351548 172.14842176 C-131.06763035 163.83227321 -131.08062354 155.51623608 -131.1049994 147.20012182 C-131.12086595 141.49626145 -131.12564828 135.79245864 -131.12175413 130.08857781 C-131.119834 126.7984668 -131.12440652 123.50859124 -131.13886642 120.21850586 C-131.15379056 116.64783463 -131.15020338 113.07764026 -131.14201355 109.50695801 C-131.15075207 108.4719228 -131.1594906 107.4368876 -131.16849393 106.37048769 C-131.11576435 97.86570533 -129.40049075 91.14952531 -123.51953125 84.7578125 C-116.52126273 78.56159273 -108.35001634 78.05112436 -99.40625 78.15625 C-98.67019531 78.16076172 -97.93414062 78.16527344 -97.17578125 78.16992188 C-95.37756842 78.18159858 -93.57939803 78.19952989 -91.78125 78.21875 C-91.6884375 76.671875 -91.6884375 76.671875 -91.59375 75.09375 C-88.84190105 53.49937978 -73.76354416 33.66917686 -57.38671875 20.2578125 C-39.85109206 7.40416906 -21.41846664 1.6845985 0 0 Z M100.21875 44.21875 C85.87874263 60.88350259 78.95940325 82.04540761 80.47265625 103.8828125 C83.15945995 125.71611826 92.89264649 145.67211913 110.34375 159.46875 C129.08760556 173.5113144 150.27455952 178.79759859 173.50292969 175.9375 C188.28296167 173.53446478 202.25478794 166.30634095 213.21875 156.21875 C214.05921875 155.46980469 214.8996875 154.72085938 215.765625 153.94921875 C225.49822647 144.82121828 231.79523195 133.73529539 236.21875 121.21875 C236.5384375 120.36925781 236.858125 119.51976562 237.1875 118.64453125 C243.36255499 99.06160224 239.44724989 77.52748448 230.28320312 59.72045898 C227.67020905 54.84765972 224.83440289 50.41548996 221.21875 46.21875 C220.39890625 45.16880859 220.39890625 45.16880859 219.5625 44.09765625 C206.99729078 28.7372204 188.45776304 20.39712393 169.09375 17.53125 C142.52227699 15.38838927 118.54928125 24.83298542 100.21875 44.21875 Z M-111.78125 98.21875 C-113.90065222 101.39785332 -114.03072931 102.15322658 -114.02734566 105.78896618 C-114.0313274 106.73226851 -114.03530914 107.67557083 -114.03941154 108.64745808 C-114.03358622 109.68508887 -114.02776089 110.72271967 -114.02175903 111.79179382 C-114.02347107 112.89017075 -114.02518311 113.98854767 -114.02694702 115.12020874 C-114.03027082 118.83109929 -114.01918854 122.54181135 -114.00830078 126.25268555 C-114.00768845 128.94636589 -114.00786562 131.64003543 -114.0090313 134.33371449 C-114.01009587 140.8318317 -114.00084902 147.32989377 -113.98802864 153.82799681 C-113.97364635 161.34224587 -113.97204012 168.85646167 -113.97045898 176.37072754 C-113.95995205 196.21591045 -113.93202991 216.06108105 -113.90625 235.90625 C-113.865 280.229375 -113.82375 324.5525 -113.78125 370.21875 C-16.10125 370.21875 81.57875 370.21875 182.21875 370.21875 C182.21875 375.82875 182.21875 381.43875 182.21875 387.21875 C174.62875 387.21875 167.03875 387.21875 159.21875 387.21875 C159.13625 389.19875 159.05375 391.17875 158.96875 393.21875 C158.33471129 401.10996157 156.68743001 406.22800476 150.78125 411.59375 C146.58343733 415.08056424 142.47794445 416.46557212 137.03971863 416.48617554 C136.01787979 416.49470551 134.99604095 416.50323547 133.9432373 416.51202393 C132.83299194 416.51111755 131.72274658 416.51021118 130.57885742 416.50927734 C129.40104202 416.51599457 128.22322662 416.52271179 127.00971985 416.52963257 C123.78640074 416.54535851 120.56323642 416.55198665 117.33988357 416.55326414 C115.3231336 416.55468827 113.30641043 416.55896284 111.28966713 416.56425858 C104.24542153 416.58274958 97.20125149 416.5909305 90.15698242 416.58935547 C83.60459007 416.58815482 77.05252751 416.60924409 70.50021857 416.6408428 C64.86350566 416.66705122 59.22690014 416.67772084 53.59012681 416.67644465 C50.22852206 416.67593628 46.86721045 416.68154917 43.50566673 416.70280075 C39.75244274 416.72242692 36.00006419 416.71663466 32.24682617 416.70458984 C31.1426535 416.71582886 30.03848083 416.72706787 28.90084839 416.73864746 C21.38975097 416.67749 16.04297963 415.51880916 10.1953125 410.47265625 C9.74929687 409.91449219 9.30328125 409.35632813 8.84375 408.78125 C8.38226563 408.22566406 7.92078125 407.67007812 7.4453125 407.09765625 C3.12077847 400.47313119 3.86899021 395.67187277 3.21875 387.21875 C-44.96125 387.21875 -93.14125 387.21875 -142.78125 387.21875 C-143.72149061 407.94748479 -143.72149061 407.94748479 -134.78125 425.21875 C-128.12901697 430.13765471 -122.06018706 431.34182496 -113.88173294 431.35017776 C-113.19655712 431.3522304 -112.5113813 431.35428303 -111.80544257 431.35639787 C-109.50465604 431.36206182 -107.20392948 431.36061137 -104.90313721 431.35919189 C-103.23881612 431.36177587 -101.57449565 431.36478912 -99.91017604 431.3681953 C-95.33260938 431.37626463 -90.7550584 431.37805483 -86.17748547 431.37879276 C-81.24210883 431.38064342 -76.30674034 431.38819078 -71.37136841 431.39492798 C-60.5780171 431.40851101 -49.78466951 431.41453588 -38.99131107 431.41893864 C-32.25279982 431.42170092 -25.51429001 431.42593823 -18.77577972 431.43044281 C-0.12109594 431.44263507 18.5335867 431.45293471 37.18827438 431.4563179 C38.97923731 431.45664725 38.97923731 431.45664725 40.8063813 431.45698325 C42.00322065 431.45720153 43.20006001 431.45741981 44.43316722 431.4576447 C46.85843961 431.45808817 49.28371199 431.45853473 51.70898438 431.45898438 C53.51351447 431.45931652 53.51351447 431.45931652 55.35449973 431.45965537 C74.85116282 431.46360406 94.34778855 431.48106043 113.84443721 431.5043439 C133.85829008 431.52805226 153.87212419 431.54051951 173.88599133 431.54168582 C185.12429924 431.54260283 196.36255846 431.54836179 207.60085297 431.56650543 C217.16971963 431.58189939 226.73852255 431.587031 236.30739924 431.57876733 C241.18948939 431.57485845 246.07145116 431.57580214 250.95352554 431.58982468 C255.42449388 431.602549 259.89523717 431.60137897 264.36620513 431.58923396 C265.98195423 431.58727444 267.59771919 431.59036722 269.21344599 431.59907833 C279.6018095 431.65153198 289.11780355 431.38331796 297.6484375 424.796875 C307.74226152 414.65283295 305.21875 400.61198715 305.21875 387.21875 C271.88875 387.21875 238.55875 387.21875 204.21875 387.21875 C204.21875 381.60875 204.21875 375.99875 204.21875 370.21875 C227.97875 370.21875 251.73875 370.21875 276.21875 370.21875 C276.30690617 336.03483841 276.3807726 301.85103698 276.42301132 267.66704594 C276.42801424 263.63276675 276.43319152 259.59848781 276.43847656 255.56420898 C276.4395258 254.76104516 276.44057505 253.95788134 276.44165608 253.13037922 C276.45906883 240.11983507 276.49061129 227.10936149 276.52736118 214.09885923 C276.56474645 200.75226303 276.58698073 187.40570383 276.59510398 174.05905741 C276.60059678 165.82117089 276.61795502 157.58348387 276.65041587 149.34565874 C276.67153398 143.69927793 276.6779562 138.0530005 276.67275551 132.40658305 C276.67018945 129.14715346 276.67634188 125.88814722 276.6955719 122.6287632 C276.71539589 119.09632868 276.71071605 115.56475623 276.69976807 112.03230286 C276.71141943 111.00020197 276.7230708 109.96810109 276.73507524 108.90472442 C276.69822084 104.52252343 276.64262626 101.9349662 274.37618637 98.10540295 C270.62743296 94.8271618 267.32305328 95.1088064 262.53125 95.15625 C261.35175781 95.16527344 260.17226563 95.17429687 258.95703125 95.18359375 C257.60158203 95.20099609 257.60158203 95.20099609 256.21875 95.21875 C256.18434814 95.76587646 256.14994629 96.31300293 256.11450195 96.87670898 C254.21676059 125.05449051 245.66841609 148.57526557 225.03125 168.46875 C213.8101808 178.1596734 201.35330982 184.89161692 187.21875 189.21875 C186.16171875 189.55777344 185.1046875 189.89679688 184.015625 190.24609375 C166.91735043 194.81546023 146.93772879 193.8686118 130.21875 188.21875 C129.56342285 187.99912598 128.9080957 187.77950195 128.23291016 187.55322266 C110.00150047 181.24698474 93.01861727 169.4185509 82.21875 153.21875 C81.55875 153.21875 80.89875 153.21875 80.21875 153.21875 C78.93086757 154.69019268 77.71304673 156.2233215 76.53125 157.78125 C61.44133865 176.96699444 39.31508265 188.69443719 15.21875 192.21875 C0.5684843 193.14549659 -13.80002994 192.94343816 -27.78125 188.21875 C-28.43657715 187.99912598 -29.0919043 187.77950195 -29.76708984 187.55322266 C-54.21346181 179.09723157 -72.70597618 161.56327574 -84.5390625 138.84375 C-90.92440729 124.982097 -93.33430453 110.37020153 -93.78125 95.21875 C-95.84308633 95.13724256 -97.90586349 95.0793306 -99.96875 95.03125 C-101.11730469 94.99644531 -102.26585937 94.96164063 -103.44921875 94.92578125 C-107.11414234 95.24801955 -108.87789715 96.00642607 -111.78125 98.21875 Z M20.21875 387.21875 C19.52430039 395.36493467 19.52430039 395.36493467 21.5402832 398.74890137 C25.88476075 401.13299826 30.19920089 400.77408947 35.07421875 400.73632812 C36.18028473 400.7433374 37.28635071 400.75034668 38.42593384 400.75756836 C42.08629373 400.77519017 45.74588208 400.76351001 49.40625 400.75 C51.94686024 400.75269369 54.48746947 400.75657508 57.02807617 400.76159668 C62.35443888 400.76749745 67.68052442 400.75929079 73.00683594 400.74023438 C79.16227219 400.71846566 85.31717848 400.72551719 91.47260189 400.74754 C97.39719489 400.76788745 103.32162338 400.76572329 109.24624634 400.75401306 C111.76608352 400.7513414 114.28593418 400.7546309 116.80575562 400.76393127 C120.32529726 400.77407014 123.84381595 400.75863141 127.36328125 400.73632812 C128.40860016 400.74442505 129.45391907 400.75252197 130.53091431 400.76086426 C135.94405267 400.7010668 135.94405267 400.7010668 140.8972168 398.74890137 C142.91319961 395.36493467 142.91319961 395.36493467 142.21875 387.21875 C101.95875 387.21875 61.69875 387.21875 20.21875 387.21875 Z " fill="#CB1818" transform="translate(174.78125,31.78125)"/>
<path d="M0 0 C5.61 0 11.22 0 17 0 C17 40.59 17 81.18 17 123 C65.84 123 114.68 123 165 123 C165 128.61 165 134.22 165 140 C116.16 140 67.32 140 17 140 C17 148.25 17 156.5 17 165 C124.58 165 232.16 165 343 165 C343 110.55 343 56.1 343 0 C348.61 0 354.22 0 360 0 C360 60.06 360 120.12 360 182 C241.2 182 122.4 182 0 182 C0 121.94 0 61.88 0 0 Z " fill="#CB1818" transform="translate(76,205)"/>
<path d="M0 0 C5.61 0 11.22 0 17 0 C17.01458252 1.42787842 17.02916504 2.85575684 17.04418945 4.3269043 C17.10220226 9.62924119 17.17943566 14.93115475 17.26245117 20.2331543 C17.29568634 22.52702967 17.32372264 24.82098654 17.34643555 27.11499023 C17.38000674 30.41425273 17.43232535 33.7127693 17.48828125 37.01171875 C17.49467117 38.03585373 17.5010611 39.05998871 17.50764465 40.11515808 C17.61854353 47.05403732 17.61854353 47.05403732 21 53 C24.52221027 55.73949688 28.7364712 55.38990522 33 55 C35.87552456 54.55177592 35.87552456 54.55177592 38 53 C40.51267098 47.53685255 40.34577787 42.02713963 40.4140625 36.1328125 C40.43342865 35.09808807 40.4527948 34.06336365 40.4727478 32.99728394 C40.53231842 29.70660533 40.57883905 26.41589132 40.625 23.125 C40.66320048 20.88800595 40.70225341 18.65102628 40.7421875 16.4140625 C40.83800156 10.94282575 40.92211585 5.47152017 41 0 C46.61 0 52.22 0 58 0 C58.0993819 6.93762097 58.17171157 13.87482128 58.21972656 20.81298828 C58.23975732 23.16983261 58.26698992 25.52662778 58.30175781 27.88330078 C58.35065172 31.28430362 58.37305502 34.6846455 58.390625 38.0859375 C58.41127014 39.12801361 58.43191528 40.17008972 58.45318604 41.2437439 C58.45617049 51.12478221 55.73340405 59.058653 48.9375 66.30859375 C42.04035011 72.32969436 34.46810715 73.36489822 25.578125 73.2734375 C17.13128937 72.62793696 10.5732103 68.25410025 5 62 C1.76677262 56.91654424 -0.12847595 52.03276088 -0.11352539 45.9777832 C-0.11344986 44.95695145 -0.11337433 43.93611969 -0.11329651 42.88435364 C-0.10813522 41.78427475 -0.10297394 40.68419586 -0.09765625 39.55078125 C-0.0962413 38.4230278 -0.09482635 37.29527435 -0.09336853 36.13334656 C-0.0877647 32.52637088 -0.07521153 28.91945696 -0.0625 25.3125 C-0.05748549 22.86914152 -0.0529225 20.42578207 -0.04882812 17.98242188 C-0.03779403 11.98825741 -0.02052679 5.99413918 0 0 Z " fill="#CB1818" transform="translate(272,96)"/>
<path d="M0 0 C5.61 0 11.22 0 17 0 C17.01458252 1.36205566 17.02916504 2.72411133 17.04418945 4.12744141 C17.10227305 9.19313473 17.17950591 14.25838825 17.26245117 19.32373047 C17.2956531 21.51376188 17.3236997 23.70387789 17.34643555 25.89404297 C17.38006809 29.0469153 17.43238948 32.19901573 17.48828125 35.3515625 C17.49467117 36.32678864 17.5010611 37.30201477 17.50764465 38.30679321 C17.64116941 44.51618693 18.37649195 49.08499105 22.6875 53.875 C26.12134244 55.54551794 29.30629875 55.63219118 33 55 C36.58204678 53.27531081 38.47545115 52.15058699 40.13818359 48.50341797 C41.2878559 43.82982093 41.35593838 39.36745254 41.4140625 34.5703125 C41.43342865 33.57998016 41.4527948 32.58964783 41.4727478 31.56930542 C41.53229553 28.4212899 41.5788297 25.27323732 41.625 22.125 C41.6632026 19.98435948 41.70225565 17.84373396 41.7421875 15.703125 C41.83797673 10.4688725 41.92209928 5.23454806 42 0 C47.61 0 53.22 0 59 0 C59.04968099 6.3863005 59.08585227 12.77248684 59.10986328 19.15893555 C59.11988013 21.32855185 59.13349742 23.4981548 59.15087891 25.66772461 C59.17531771 28.79804801 59.18652657 31.92819188 59.1953125 35.05859375 C59.20563507 36.01833603 59.21595764 36.97807831 59.22659302 37.96690369 C59.22832795 48.53615339 57.54698744 57.0729192 50.17578125 64.94921875 C42.66263802 71.99002291 35.87726123 73.73297617 25.60546875 73.46875 C17.61823116 72.43032258 11.1464104 68.88518108 5.9375 62.75 C0.13003839 55.12493591 -0.43602641 45.74714411 -0.29296875 36.5234375 C-0.28872391 35.47217682 -0.28447906 34.42091614 -0.28010559 33.33779907 C-0.26346139 30.01659317 -0.22583614 26.69601906 -0.1875 23.375 C-0.17243473 21.10808175 -0.15874957 18.84115388 -0.14648438 16.57421875 C-0.11360466 11.04923985 -0.06192216 5.52472663 0 0 Z " fill="#CB1818" transform="translate(133,94)"/>
<path d="M0 0 C2.81949798 1.10308121 3.61928296 2.54315996 5.25268555 5.07104492 C6.09959961 6.35205078 6.09959961 6.35205078 6.96362305 7.65893555 C7.54112305 8.55676758 8.11862305 9.45459961 8.71362305 10.37963867 C9.86637937 12.15574671 11.02492772 13.92811361 12.19018555 15.69604492 C12.69888184 16.48567627 13.20757812 17.27530762 13.73168945 18.08886719 C14.17947754 18.65919678 14.62726563 19.22952637 15.08862305 19.81713867 C15.74862305 19.81713867 16.40862305 19.81713867 17.08862305 19.81713867 C18.54018304 18.02360185 18.54018304 18.02360185 19.98706055 15.69604492 C20.5490918 14.84333008 21.11112305 13.99061523 21.69018555 13.11206055 C22.86838026 11.29675834 24.04289031 9.4790591 25.21362305 7.65893555 C25.77823242 6.80493164 26.3428418 5.95092773 26.92456055 5.07104492 C27.4355127 4.28028564 27.94646484 3.48952637 28.47290039 2.67480469 C30.08862305 0.81713867 30.08862305 0.81713867 32.09790039 -0.06567383 C35.53611776 -0.26807073 37.79827201 2.19136313 40.33862305 4.25463867 C40.89291992 4.6884082 41.4472168 5.12217773 42.01831055 5.5690918 C43.38402458 6.64047091 44.73754824 7.72735663 46.08862305 8.81713867 C42.49666548 15.46004292 38.11977149 21.37091855 33.60229492 27.40893555 C33.03704102 28.17657227 32.47178711 28.94420898 31.8894043 29.73510742 C31.37547119 30.4237085 30.86153809 31.11230957 30.33203125 31.82177734 C29.0056629 33.9502691 28.27215992 35.31041131 28.08862305 37.81713867 C29.17514708 40.09867609 29.17514708 40.09867609 30.9128418 42.33666992 C31.5296582 43.19454102 32.14647461 44.05241211 32.78198242 44.9362793 C33.44004883 45.82508789 34.09811523 46.71389648 34.77612305 47.62963867 C38.85274571 53.22831016 42.79978285 58.71405042 46.08862305 64.81713867 C43.96747346 66.32285613 41.8420869 67.82182546 39.71362305 69.31713867 C39.1103418 69.74639648 38.50706055 70.1756543 37.88549805 70.61791992 C33.31518555 73.81713867 33.31518555 73.81713867 31.08862305 73.81713867 C29.57641602 71.98120117 29.57641602 71.98120117 27.83081055 69.44213867 C27.20561523 68.53979492 26.58041992 67.63745117 25.9362793 66.70776367 C24.95981445 65.2769043 24.95981445 65.2769043 23.96362305 63.81713867 C23.30491211 62.86323242 22.64620117 61.90932617 21.9675293 60.92651367 C20.33517954 58.56078939 18.70923069 56.19091535 17.08862305 53.81713867 C13.50043519 55.01320129 13.01207305 55.99099064 10.9519043 59.07104492 C10.08662109 60.35205078 10.08662109 60.35205078 9.20385742 61.65893555 C8.60895508 62.55676758 8.01405273 63.45459961 7.40112305 64.37963867 C6.79461914 65.28133789 6.18811523 66.18303711 5.56323242 67.11206055 C4.06452366 69.34242241 2.57339446 71.57748454 1.08862305 73.81713867 C-2.7751266 72.33957287 -5.85939172 70.61456804 -9.22387695 68.19213867 C-10.54838867 67.24467773 -10.54838867 67.24467773 -11.8996582 66.27807617 C-12.56352539 65.7959668 -13.22739258 65.31385742 -13.91137695 64.81713867 C-10.36132419 57.71703315 -5.89466543 51.62914181 -1.01391602 45.40307617 C-0.50054687 44.73920898 0.01282227 44.0753418 0.54174805 43.39135742 C1.00742187 42.7992749 1.4730957 42.20719238 1.95288086 41.59716797 C3.22769224 39.5991779 3.83820667 38.17791885 4.08862305 35.81713867 C3.34326629 33.98122664 3.34326629 33.98122664 2.02612305 32.27807617 C1.56181885 31.61936523 1.09751465 30.9606543 0.61914062 30.28198242 C0.11406982 29.59233398 -0.39100098 28.90268555 -0.91137695 28.19213867 C-1.41451416 27.48444336 -1.91765137 26.77674805 -2.43603516 26.04760742 C-3.44699463 24.62699184 -4.46297463 23.20993466 -5.48413086 21.79663086 C-7.38653541 19.15812657 -9.24279819 16.48836131 -11.09887695 13.81713867 C-12.03564279 12.48328943 -12.97280547 11.14971798 -13.91137695 9.81713867 C-11.21429504 6.95659725 -8.46764196 4.34170571 -5.34887695 1.94213867 C-4.79071289 1.5115918 -4.23254883 1.08104492 -3.6574707 0.63745117 C-1.91137695 -0.18286133 -1.91137695 -0.18286133 0 0 Z " fill="#CB1818" transform="translate(350.911376953125,92.182861328125)"/>
<path d="M0 0 C5.61 0 11.22 0 17 0 C17 22.77 17 45.54 17 69 C11.39 69 5.78 69 0 69 C0 46.23 0 23.46 0 0 Z " fill="#CB1818" transform="translate(204,94)"/>
<path d="M0 0 C9.57 0 19.14 0 29 0 C29 5.61 29 11.22 29 17 C19.43 17 9.86 17 0 17 C0 11.39 0 5.78 0 0 Z " fill="#CB1818" transform="translate(256,328)"/>
</svg>
