<?xml version="1.0" encoding="UTF-8"?>
<svg id="Layer_1" data-name="Layer 1" xmlns="http://www.w3.org/2000/svg" viewBox="0 0 478.52 497.36">
  <defs>
    <style>
      .cls-1 {
        fill: #fff;
      }
    </style>
  </defs>
  <path class="cls-1" d="M476.35,253.67c13.33-36.02-38.02-33.25-60.11-37.24-5.33-.97-15.11-2.26-18.24-6.74-3.95-5.69-1.86-7.03-9.21-11.76-19.25-12.38-40.83-14.05-62.69-14.14-9.83-.03-19.68-.03-29.49-.05l109.84-40.93-146.77,24.96L207.7,0h-.99l-49.92,187.27L0,221.22l124.66,88.97-46.77,187.17c44.88-46.93,70.81-110.44,129.79-143.33,36.11-20.14,78.52-30.57,119.86-31.44-5.45,14.67-7.49,28.76-1.16,43.61,4.02,9.45,13.97,20.21,23.1,24.84,10.19,5.15,24.93,5.04,33.51,11.44,7.56,5.66,7.83,15.97,18.89,2.92,3.59-4.27,11.49-19.27,11.54-24.53.02-3.49-2.97-3.37-2.97-6.34,10.67,0,9.69-16.28,9.98-23.97-14.04,10.34-18.58,18.65-37.3,10.84-38.93-16.26-7.59-65.37,24.28-72.32,5.47-1.2,15.2-1.03,19.81-3.11,1.9-.87,1.08-3.03,2.14-3.9,2.26-1.86,16.55,6.94,21.05,4.56.8,2.09-2.84,3.42-2.84,4.48,0,.63,4.72,7.86,5.39,11.45,1.03,5.62-1.71,14.96,6.43,14.04-.36-16.29,14.41-33.01,16.36-48.16,2.02-15.59-14.5-16.38-25.34-19.78-1.21-5.78,13.76-12.22,16.98-9.97l-1.88,10.87,10.86,4.1ZM74.88,237.7l99.7-23.15,35.12-116.68,24.98,87.89-33.97,1.98,1.3,15.2,7.69,14.77c-14.91-.29-30.82,7.47-43.61,14.81-14.21,8.15-28.91,19.46-40.28,31.13,33.53-13.86,66.43-30.81,102.87-35.95-1.68-4.96-6.05-8.48-8.02-13.45-1.95-4.96-2.36-9.16-1.97-14.51,16.5-.14,35.87,5.16,48.84,15.57,2.26,1.81,5.52,4.22,5.09,7.4-41.42,2.41-80.16,21.37-110.88,48.43-4.36,3.85-10.19,11.71-14.41,14.55-.92.63-1.57,1.28-2.8.8l-69.65-48.79ZM272.85,269.38c-17.59,6.21-33.53,15.97-50.13,24.29l.41,2.99,2.07,1.01c14.92-1.81,30.86-4.34,45.92-3.06,1.33.1,5.03.36,4.48,2.48-.75,1.45-19.42,6.65-22.94,8.04-51.9,20.26-87.87,69.97-126.84,107.33l27.54-113.82-3.57-10.96c55-26.99,117.76-37.56,178.76-29.99l-55.7,11.69ZM408.95,237.7c-9.54-.62-20.16-3.52-29.94-4.05-10.17-.55-20.38.34-30.48,1.04-.09-3.47,4.29-3.49,3.61-7.04-.44-2.27-12.07-8.94-10.62-14.91,25.99-5.2,46.26,14.98,68.91,22.96.09,1.78.5,2.12-1.49,2Z"/>
  <path class="cls-1" d="M296.6,441.42c-22.07-6.92-24.65-36.26-21.97-55.92-23.95-.22-44.09,12.82-62.91,25.97,15.97-44.77,57.96-78.88,105.84-82.88,1.08,1.27-1.83,13.68-1.97,16.48-.65,12.27,2.99,22.96,8.96,33.42-25.28,10.16-37.78,36.84-27.95,62.93Z"/>
  <path class="cls-1" d="M383.46,227.17c-1.54,7.37-24.58-1.68-28.6-5.8-1.33-1.37-2.56-3.64-2.34-5.64,10.87.21,23.83,2.7,30.94,11.44Z"/>
</svg>