<svg width="17" height="16" viewBox="0 0 17 16" fill="none" xmlns="http://www.w3.org/2000/svg">
<path d="M8.06442 0.716147C8.25568 0.376825 8.74432 0.376824 8.93558 0.716147L11.2443 4.81218C11.3156 4.93877 11.4385 5.02806 11.581 5.0568L16.1899 5.98675C16.5718 6.06379 16.7228 6.52852 16.4591 6.81527L13.277 10.2767C13.1787 10.3837 13.1317 10.5282 13.1484 10.6725L13.6882 15.3433C13.7329 15.7302 13.3376 16.0174 12.9834 15.8553L8.70808 13.8986C8.57595 13.8381 8.42405 13.8381 8.29192 13.8986L4.01655 15.8553C3.66238 16.0174 3.26706 15.7302 3.31178 15.3433L3.85159 10.6725C3.86828 10.5282 3.82134 10.3837 3.72299 10.2767L0.540856 6.81527C0.277243 6.52852 0.42824 6.06379 0.810056 5.98675L5.41904 5.0568C5.56149 5.02806 5.68438 4.93877 5.75573 4.81218L8.06442 0.716147Z" fill="#FFF"/>
</svg>
