<?xml version="1.0" encoding="UTF-8"?>
<svg version="1.1" xmlns="http://www.w3.org/2000/svg" width="512" height="512">
<path d="M0 0 C5.79093447 4.22322293 9.62230934 9.48648565 11.12109375 16.546875 C12.04175888 24.11678831 11.20294244 31.00295884 7.12109375 37.546875 C3.59731423 41.40140639 0.12800181 44.87790565 -4.87890625 46.546875 C-5.20890625 63.706875 -5.53890625 80.866875 -5.87890625 98.546875 C5.01109375 98.546875 15.90109375 98.546875 27.12109375 98.546875 C27.08628906 94.77894531 27.05148437 91.01101562 27.015625 87.12890625 C26.99222683 83.47844195 26.97401166 79.82798602 26.95629883 76.17749023 C26.94121512 73.64099385 26.92074544 71.10452352 26.89477539 68.56811523 C26.85837494 64.92164678 26.84136293 61.27552327 26.828125 57.62890625 C26.81264114 56.49540237 26.79715729 55.3618985 26.78120422 54.19404602 C26.78097763 53.13332382 26.78075104 52.07260162 26.78051758 50.97973633 C26.77052483 49.58408195 26.77052483 49.58408195 26.7603302 48.16023254 C27.28718169 44.34374023 28.835399 41.55706373 31.87109375 39.171875 C35.26221462 38.22989698 37.73100578 38.69935301 41.12109375 39.546875 C43.77059967 41.61623163 44.97642552 42.77422806 45.60211182 46.11590576 C45.59322937 47.08409241 45.58434692 48.05227905 45.57519531 49.04980469 C45.57474213 50.70106354 45.57474213 50.70106354 45.57427979 52.38568115 C45.55363464 53.56809387 45.5329895 54.75050659 45.51171875 55.96875 C45.50605896 57.18387268 45.50039917 58.39899536 45.49456787 59.65093994 C45.47217109 63.53331843 45.42196562 67.41477528 45.37109375 71.296875 C45.35103315 73.92837209 45.33278162 76.55988364 45.31640625 79.19140625 C45.2756967 85.64387019 45.19740493 92.09434059 45.12109375 98.546875 C56.01109375 98.546875 66.90109375 98.546875 78.12109375 98.546875 C78.08628906 94.1640625 78.05148437 89.78125 78.015625 85.265625 C77.99630997 81.75432592 77.98004942 78.24304201 77.9658432 74.73171997 C77.95005101 71.03425299 77.92897395 67.33699488 77.89477539 63.63964844 C77.86199933 60.07347058 77.84420266 56.50749432 77.83646202 52.94117737 C77.82828276 50.92942653 77.80489282 48.91775593 77.78120422 46.90612793 C77.77853596 32.29635386 77.77853596 32.29635386 82.46711731 27.0369873 C86.9665538 23.0197664 91.23855476 21.26905384 97.2109375 21.44921875 C98.16033203 21.45115234 99.10972656 21.45308594 100.08789062 21.45507812 C102.06491274 21.47457538 104.04185774 21.52136909 106.01757812 21.59570312 C108.96065935 21.57375472 111.31507593 21.44977262 114.12109375 20.546875 C116.18099115 18.42685001 117.48797784 16.38030211 118.86181641 13.76953125 C121.46962096 9.1666905 125.65855858 7.12637007 130.43359375 5.234375 C139.9540884 3.45936752 146.99029144 4.45159598 155.09765625 9.8671875 C161.27210966 14.67537888 164.02632389 20.21788208 165.05859375 27.921875 C165.47051342 35.55823195 163.83807681 41.82570135 159.05859375 47.859375 C153.20602919 53.88299573 147.03092206 56.79590621 138.62109375 57.171875 C131.35917028 56.85539541 125.59641585 54.78376544 120.2421875 49.796875 C117.58138831 46.82190915 115.92763756 44.15996262 114.12109375 40.546875 C108.18109375 40.216875 102.24109375 39.886875 96.12109375 39.546875 C96.12109375 59.016875 96.12109375 78.486875 96.12109375 98.546875 C101.07109375 98.546875 106.02109375 98.546875 111.12109375 98.546875 C121.6175052 101.41957708 129.13785463 105.80125323 134.8671875 115.21484375 C139.7454976 124.2875887 139.12109375 130.34670824 139.12109375 141.546875 C158.59109375 141.546875 178.06109375 141.546875 198.12109375 141.546875 C197.79109375 135.606875 197.46109375 129.666875 197.12109375 123.546875 C193.83855373 120.35383422 193.83855373 120.35383422 191.1875 119.3984375 C186.75444737 117.57158405 184.67801672 113.48788277 182.30859375 109.484375 C179.93165514 103.27410765 180.07621773 96.03463245 181.96484375 89.73046875 C185.07214498 82.85451502 189.63014916 77.7028268 196.47265625 74.41796875 C204.07049989 71.7285733 211.94153745 71.8965939 219.37109375 75.109375 C225.66329283 78.68830548 230.50553598 84.502251 232.6875 91.4140625 C234.3544246 99.61352946 233.12529107 106.57629398 228.83203125 113.6796875 C226.2462111 117.42705253 224.7846136 119.26362213 220.4609375 121.109375 C218.56139699 122.03945296 218.56139699 122.03945296 217.12109375 123.546875 C216.17661504 127.12145918 216.32474891 130.62033831 216.43359375 134.296875 C216.56609231 141.6382767 216.40373938 147.34758087 212.12109375 153.546875 C208.05790723 157.61006152 203.76775041 159.33988786 198.04580688 159.78738403 C196.41365738 159.7807222 196.41365738 159.7807222 194.74853516 159.77392578 C193.50770172 159.77377472 192.26686829 159.77362366 190.98843384 159.77346802 C189.64983964 159.76325725 188.31124712 159.7528253 186.97265625 159.7421875 C185.59117844 159.73845313 184.20969797 159.73560816 182.82821655 159.73361206 C179.20815604 159.72600892 175.58825832 159.70638937 171.96826172 159.6842041 C168.26792644 159.66367379 164.56756385 159.65448514 160.8671875 159.64453125 C153.61834624 159.6242036 146.36995087 159.5850492 139.12109375 159.546875 C139.12109375 170.436875 139.12109375 181.326875 139.12109375 192.546875 C143.03339844 192.47726563 146.94570313 192.40765625 150.9765625 192.3359375 C154.76600221 192.28914423 158.55540973 192.25271265 162.3449707 192.21728516 C164.9785808 192.1871126 167.61209041 192.14616883 170.24536133 192.09423828 C174.03101382 192.02145099 177.81533796 191.98742152 181.6015625 191.9609375 C182.77881393 191.92996979 183.95606537 191.89900208 185.16899109 191.86709595 C193.13554848 191.8638161 193.13554848 191.8638161 195.99282837 193.84413147 C197.87008719 196.00915901 199.01866719 197.93765035 199.49609375 200.77734375 C198.94418376 203.65762402 198.45913818 206.07053967 196.74609375 208.484375 C193.50944982 210.60064218 190.66193223 210.66929979 186.9152832 210.66040039 C185.32397331 210.66028709 185.32397331 210.66028709 183.70051575 210.66017151 C182.5566893 210.65501022 181.41286285 210.64984894 180.234375 210.64453125 C179.06222946 210.6431163 177.89008392 210.64170135 176.68241882 210.64024353 C172.93278468 210.63463888 169.1832099 210.62208556 165.43359375 210.609375 C162.89388107 210.6043606 160.35416745 210.59979759 157.81445312 210.59570312 C151.58329197 210.58551816 145.35225944 210.56594351 139.12109375 210.546875 C139.12109375 221.436875 139.12109375 232.326875 139.12109375 243.546875 C156.28109375 243.546875 173.44109375 243.546875 191.12109375 243.546875 C191.78109375 241.896875 192.44109375 240.246875 193.12109375 238.546875 C197.41748033 231.99244433 202.48341277 228.31712467 210.12109375 226.546875 C218.01345365 225.59055841 224.63984225 226.51277995 231.25 230.98828125 C237.48330345 235.93589411 240.55796167 240.96673405 241.53125 248.8828125 C241.90842011 257.79950066 240.45872377 264.58807951 234.51171875 271.38671875 C229.03246802 276.52665808 223.19720733 278.65904469 215.74609375 278.984375 C208.76819871 278.73344102 203.01393558 277.14852318 197.75390625 272.41796875 C194.37543966 268.76898437 192.34470495 266.44131979 191.12109375 261.546875 C173.96109375 261.546875 156.80109375 261.546875 139.12109375 261.546875 C139.12109375 272.436875 139.12109375 283.326875 139.12109375 294.546875 C142.88902344 294.51207031 146.65695312 294.47726562 150.5390625 294.44140625 C154.1895268 294.41800808 157.83998273 294.39979291 161.49047852 294.38208008 C164.0269749 294.36699637 166.56344523 294.34652669 169.09985352 294.32055664 C172.74632197 294.28415619 176.39244548 294.26714418 180.0390625 294.25390625 C181.73931831 294.23068047 181.73931831 294.23068047 183.47392273 294.20698547 C184.53464493 294.20675888 185.59536713 294.20653229 186.68823242 294.20629883 C188.0838868 294.19630608 188.0838868 294.19630608 189.50773621 294.18611145 C193.32422852 294.71296294 196.11090502 296.26118025 198.49609375 299.296875 C199.43807177 302.68799587 198.96861574 305.15678703 198.12109375 308.546875 C196.05173712 311.19638092 194.89374069 312.40220677 191.55206299 313.02789307 C190.58387634 313.01901062 189.6156897 313.01012817 188.61816406 313.00097656 C187.51732483 313.00067444 186.4164856 313.00037231 185.2822876 313.00006104 C184.09987488 312.97941589 182.91746216 312.95877075 181.69921875 312.9375 C179.87653473 312.92901031 179.87653473 312.92901031 178.01702881 312.92034912 C174.13465032 312.89795234 170.25319347 312.84774687 166.37109375 312.796875 C163.73959666 312.7768144 161.10808511 312.75856287 158.4765625 312.7421875 C152.02409856 312.70147795 145.57362816 312.62318618 139.12109375 312.546875 C139.12109375 323.436875 139.12109375 334.326875 139.12109375 345.546875 C145.6953125 345.49466797 145.6953125 345.49466797 152.40234375 345.44140625 C155.91364283 345.42209122 159.42492674 345.40583067 162.93624878 345.39162445 C166.63371576 345.37583226 170.33097387 345.3547552 174.02832031 345.32055664 C177.59449817 345.28778058 181.16047443 345.26998391 184.72679138 345.26224327 C186.73854222 345.25406401 188.75021282 345.23067407 190.76184082 345.20698547 C205.37161489 345.20431721 205.37161489 345.20431721 210.63098145 349.89289856 C214.64820235 354.39233505 216.39891491 358.66433601 216.21875 364.63671875 C216.21681641 365.58611328 216.21488281 366.53550781 216.21289062 367.51367188 C216.19339337 369.49069399 216.14659966 371.46763899 216.07226562 373.44335938 C216.09421403 376.3864406 216.21819613 378.74085718 217.12109375 381.546875 C219.24111874 383.6067724 221.28766664 384.91375909 223.8984375 386.28759766 C228.50127825 388.89540221 230.54159868 393.08433983 232.43359375 397.859375 C234.20860123 407.37986965 233.21637277 414.41607269 227.80078125 422.5234375 C222.99258987 428.69789091 217.45008667 431.45210514 209.74609375 432.484375 C202.1097368 432.89629467 195.8422674 431.26385806 189.80859375 426.484375 C183.78497302 420.63181044 180.87206254 414.45670331 180.49609375 406.046875 C180.81257334 398.78495153 182.88420331 393.0221971 187.87109375 387.66796875 C190.8460596 385.00716956 193.50800613 383.35341881 197.12109375 381.546875 C197.45109375 375.606875 197.78109375 369.666875 198.12109375 363.546875 C178.65109375 363.546875 159.18109375 363.546875 139.12109375 363.546875 C139.12109375 368.496875 139.12109375 373.446875 139.12109375 378.546875 C136.24839167 389.04328645 131.86671552 396.56363588 122.453125 402.29296875 C113.38038005 407.17127885 107.32126051 406.546875 96.12109375 406.546875 C96.12109375 426.016875 96.12109375 445.486875 96.12109375 465.546875 C102.06109375 465.216875 108.00109375 464.886875 114.12109375 464.546875 C117.31413453 461.26433498 117.31413453 461.26433498 118.26953125 458.61328125 C120.0963847 454.18022862 124.18008598 452.10379797 128.18359375 449.734375 C134.3938611 447.35743639 141.6333363 447.50199898 147.9375 449.390625 C154.73793832 452.46380018 159.95153599 457.04504264 163.21484375 463.81640625 C166.22909891 472.00792376 165.62754956 479.60139535 162.12109375 487.546875 C157.57543995 494.55776432 151.88835762 497.95778704 144.12109375 500.546875 C134.38036089 501.44655192 127.8059126 499.0640588 119.98046875 493.4375 C118.12109375 491.546875 118.12109375 491.546875 116.55859375 487.88671875 C115.62851579 485.98717824 115.62851579 485.98717824 114.12109375 484.546875 C110.54650957 483.60239629 107.04763044 483.75053016 103.37109375 483.859375 C96.02969205 483.99187356 90.32038788 483.82952063 84.12109375 479.546875 C80.05790723 475.48368848 78.32808089 471.19353166 77.88058472 465.47158813 C77.88502594 464.38348846 77.88946716 463.29538879 77.89404297 462.17431641 C77.89419403 460.93348297 77.89434509 459.69264954 77.89450073 458.41421509 C77.9047115 457.07562089 77.91514345 455.73702837 77.92578125 454.3984375 C77.92951562 453.01695969 77.93236059 451.63547922 77.93435669 450.2539978 C77.94195983 446.63393729 77.96157938 443.01403957 77.98376465 439.39404297 C78.00429496 435.69370769 78.01348361 431.9933451 78.0234375 428.29296875 C78.04376515 421.04412749 78.08291955 413.79573212 78.12109375 406.546875 C67.23109375 406.546875 56.34109375 406.546875 45.12109375 406.546875 C45.19070313 410.45917969 45.2603125 414.37148438 45.33203125 418.40234375 C45.37882452 422.19178346 45.4152561 425.98119098 45.45068359 429.77075195 C45.48085615 432.40436205 45.52179992 435.03787166 45.57373047 437.67114258 C45.64651776 441.45679507 45.68054723 445.24111921 45.70703125 449.02734375 C45.73799896 450.20459518 45.76896667 451.38184662 45.8008728 452.59477234 C45.80415265 460.56132973 45.80415265 460.56132973 43.82383728 463.41860962 C41.65880974 465.29586844 39.7303184 466.44444844 36.890625 466.921875 C34.01034473 466.36996501 31.59742908 465.88491943 29.18359375 464.171875 C27.06732657 460.93523107 26.99866896 458.08771348 27.00756836 454.34106445 C27.00764389 453.28019119 27.00771942 452.21931793 27.00779724 451.126297 C27.01295853 449.98247055 27.01811981 448.8386441 27.0234375 447.66015625 C27.02555992 445.90193794 27.02555992 445.90193794 27.02772522 444.10820007 C27.03332987 440.35856593 27.04588319 436.60899115 27.05859375 432.859375 C27.06360815 430.31966232 27.06817116 427.7799487 27.07226562 425.24023438 C27.08245059 419.00907322 27.10202524 412.77804069 27.12109375 406.546875 C16.23109375 406.546875 5.34109375 406.546875 -5.87890625 406.546875 C-5.87890625 423.706875 -5.87890625 440.866875 -5.87890625 458.546875 C-4.22890625 459.206875 -2.57890625 459.866875 -0.87890625 460.546875 C5.67552442 464.84326158 9.35084408 469.90919402 11.12109375 477.546875 C12.07741034 485.4392349 11.1551888 492.0656235 6.6796875 498.67578125 C1.73207464 504.9090847 -3.2987653 507.98374292 -11.21484375 508.95703125 C-20.13153191 509.33420136 -26.92011076 507.88450502 -33.71875 501.9375 C-38.85868933 496.45824927 -40.99107594 490.62298858 -41.31640625 483.171875 C-41.06547227 476.19397996 -39.48055443 470.43971683 -34.75 465.1796875 C-31.10101562 461.80122091 -28.77335104 459.7704862 -23.87890625 458.546875 C-23.87890625 441.386875 -23.87890625 424.226875 -23.87890625 406.546875 C-34.76890625 406.546875 -45.65890625 406.546875 -56.87890625 406.546875 C-56.84410156 410.31480469 -56.80929688 414.08273437 -56.7734375 417.96484375 C-56.75003933 421.61530805 -56.73182416 425.26576398 -56.71411133 428.91625977 C-56.69902762 431.45275615 -56.67855794 433.98922648 -56.65258789 436.52563477 C-56.61618744 440.17210322 -56.59917543 443.81822673 -56.5859375 447.46484375 C-56.57045364 448.59834763 -56.55496979 449.7318515 -56.53901672 450.89970398 C-56.53867683 452.49078728 -56.53867683 452.49078728 -56.53833008 454.11401367 C-56.52833733 455.50966805 -56.52833733 455.50966805 -56.5181427 456.93351746 C-57.04499419 460.75000977 -58.5932115 463.53668627 -61.62890625 465.921875 C-65.02002712 466.86385302 -67.48881828 466.39439699 -70.87890625 465.546875 C-73.52841217 463.47751837 -74.73423802 462.31952194 -75.35992432 458.97784424 C-75.35104187 458.00965759 -75.34215942 457.04147095 -75.33300781 456.04394531 C-75.33270569 454.94310608 -75.33240356 453.84226685 -75.33209229 452.70806885 C-75.31144714 451.52565613 -75.290802 450.34324341 -75.26953125 449.125 C-75.26387146 447.90987732 -75.25821167 446.69475464 -75.25238037 445.44281006 C-75.22998359 441.56043157 -75.17977812 437.67897472 -75.12890625 433.796875 C-75.10884565 431.16537791 -75.09059412 428.53386636 -75.07421875 425.90234375 C-75.0335092 419.44987981 -74.95521743 412.99940941 -74.87890625 406.546875 C-85.76890625 406.546875 -96.65890625 406.546875 -107.87890625 406.546875 C-107.84410156 410.9296875 -107.80929688 415.3125 -107.7734375 419.828125 C-107.75412247 423.33942408 -107.73786192 426.85070799 -107.7236557 430.36203003 C-107.70786351 434.05949701 -107.68678645 437.75675512 -107.65258789 441.45410156 C-107.61981183 445.02027942 -107.60201516 448.58625568 -107.59427452 452.15257263 C-107.58609526 454.16432347 -107.56270532 456.17599407 -107.53901672 458.18762207 C-107.53634846 472.79739614 -107.53634846 472.79739614 -112.22492981 478.0567627 C-116.7243663 482.0739836 -120.99636726 483.82469616 -126.96875 483.64453125 C-127.91814453 483.64259766 -128.86753906 483.64066406 -129.84570312 483.63867188 C-131.82272524 483.61917462 -133.79967024 483.57238091 -135.77539062 483.49804688 C-138.71847185 483.51999528 -141.07288843 483.64397738 -143.87890625 484.546875 C-145.93880365 486.66689999 -147.24579034 488.71344789 -148.61962891 491.32421875 C-151.22743346 495.9270595 -155.41637108 497.96737993 -160.19140625 499.859375 C-169.7119009 501.63438248 -176.74810394 500.64215402 -184.85546875 495.2265625 C-190.09970601 491.1427522 -192.77888736 486.30527286 -194.62890625 479.984375 C-195.47760443 471.70956779 -194.28630372 464.34018284 -189.37109375 457.42578125 C-183.50435404 451.08151622 -177.02211402 448.36753234 -168.44140625 447.984375 C-161.12869049 448.24066177 -155.39119456 450.2755545 -150 455.296875 C-147.33920081 458.27184085 -145.68545006 460.93378738 -143.87890625 464.546875 C-137.93890625 464.876875 -131.99890625 465.206875 -125.87890625 465.546875 C-125.87890625 446.076875 -125.87890625 426.606875 -125.87890625 406.546875 C-130.82890625 406.546875 -135.77890625 406.546875 -140.87890625 406.546875 C-151.3753177 403.67417292 -158.89566713 399.29249677 -164.625 389.87890625 C-169.5033101 380.8061613 -168.87890625 374.74704176 -168.87890625 363.546875 C-188.34890625 363.546875 -207.81890625 363.546875 -227.87890625 363.546875 C-227.38390625 372.456875 -227.38390625 372.456875 -226.87890625 381.546875 C-223.59636623 384.73991578 -223.59636623 384.73991578 -220.9453125 385.6953125 C-216.51225987 387.52216595 -214.43582922 391.60586723 -212.06640625 395.609375 C-209.68946764 401.81964235 -209.83403023 409.05911755 -211.72265625 415.36328125 C-214.82995748 422.23923498 -219.38796166 427.3909232 -226.23046875 430.67578125 C-233.82831239 433.3651767 -241.69934995 433.1971561 -249.12890625 429.984375 C-255.42110533 426.40544452 -260.26334848 420.591499 -262.4453125 413.6796875 C-264.1122371 405.48022054 -262.88310357 398.51745602 -258.58984375 391.4140625 C-256.0040236 387.66669747 -254.5424261 385.83012787 -250.21875 383.984375 C-248.31920949 383.05429704 -248.31920949 383.05429704 -246.87890625 381.546875 C-245.93442754 377.97229082 -246.08256141 374.47341169 -246.19140625 370.796875 C-246.32390481 363.4554733 -246.16155188 357.74616913 -241.87890625 351.546875 C-237.81571973 347.48368848 -233.52556291 345.75386214 -227.80361938 345.30636597 C-226.71551971 345.31080719 -225.62742004 345.31524841 -224.50634766 345.31982422 C-223.26551422 345.31997528 -222.02468079 345.32012634 -220.74624634 345.32028198 C-219.40765214 345.33049275 -218.06905962 345.3409247 -216.73046875 345.3515625 C-215.34899094 345.35529687 -213.96751047 345.35814184 -212.58602905 345.36013794 C-208.96596854 345.36774108 -205.34607082 345.38736063 -201.72607422 345.4095459 C-198.02573894 345.43007621 -194.32537635 345.43926486 -190.625 345.44921875 C-183.37615874 345.4695464 -176.12776337 345.5087008 -168.87890625 345.546875 C-168.87890625 334.656875 -168.87890625 323.766875 -168.87890625 312.546875 C-172.79121094 312.61648438 -176.70351562 312.68609375 -180.734375 312.7578125 C-184.52381471 312.80460577 -188.31322223 312.84103735 -192.1027832 312.87646484 C-194.7363933 312.9066374 -197.36990291 312.94758117 -200.00317383 312.99951172 C-203.78882632 313.07229901 -207.57315046 313.10632848 -211.359375 313.1328125 C-212.53662643 313.16378021 -213.71387787 313.19474792 -214.92680359 313.22665405 C-222.89336098 313.2299339 -222.89336098 313.2299339 -225.75064087 311.24961853 C-227.62789969 309.08459099 -228.77647969 307.15609965 -229.25390625 304.31640625 C-228.70199626 301.43612598 -228.21695068 299.02321033 -226.50390625 296.609375 C-223.26726232 294.49310782 -220.41974473 294.42445021 -216.6730957 294.43334961 C-215.08178581 294.43346291 -215.08178581 294.43346291 -213.45832825 294.43357849 C-212.3145018 294.43873978 -211.17067535 294.44390106 -209.9921875 294.44921875 C-208.23396919 294.45134117 -208.23396919 294.45134117 -206.44023132 294.45350647 C-202.69059718 294.45911112 -198.9410224 294.47166444 -195.19140625 294.484375 C-192.65169357 294.4893894 -190.11197995 294.49395241 -187.57226562 294.49804688 C-181.34110447 294.50823184 -175.11007194 294.52780649 -168.87890625 294.546875 C-168.87890625 283.656875 -168.87890625 272.766875 -168.87890625 261.546875 C-176.21375025 261.52902246 -183.54223103 261.53213874 -190.87597656 261.58959961 C-193.37073368 261.60274529 -195.86558827 261.60346831 -198.36035156 261.59155273 C-201.94564353 261.57657836 -205.52821265 261.60616448 -209.11328125 261.64453125 C-210.78846832 261.62314842 -210.78846832 261.62314842 -212.49749756 261.60133362 C-217.95966025 261.48758185 -217.95966025 261.48758185 -222.43658447 264.0987854 C-223.6969049 266.19970214 -223.6969049 266.19970214 -224.87890625 269.546875 C-229.61581459 275.00559794 -235.38740801 278.07408571 -242.55078125 278.828125 C-250.80063215 279.10160072 -256.65005246 277.56439062 -263.12890625 272.421875 C-269.25277055 266.62349167 -271.08770336 260.97127412 -271.44140625 252.609375 C-271.17053424 244.2394298 -268.7169116 237.87900043 -262.56640625 232.109375 C-255.62215239 226.83771562 -248.49498971 225.51342566 -239.87890625 226.546875 C-231.77340705 228.34277586 -226.49283135 232.70429156 -221.87890625 239.546875 C-221.54890625 240.866875 -221.21890625 242.186875 -220.87890625 243.546875 C-203.71890625 243.546875 -186.55890625 243.546875 -168.87890625 243.546875 C-168.87890625 232.656875 -168.87890625 221.766875 -168.87890625 210.546875 C-172.64683594 210.58167969 -176.41476563 210.61648437 -180.296875 210.65234375 C-183.9473393 210.67574192 -187.59779523 210.69395709 -191.24829102 210.71166992 C-193.7847874 210.72675363 -196.32125773 210.74722331 -198.85766602 210.77319336 C-202.50413447 210.80959381 -206.15025798 210.82660582 -209.796875 210.83984375 C-211.49713081 210.86306953 -211.49713081 210.86306953 -213.23173523 210.88676453 C-214.29245743 210.88699112 -215.35317963 210.88721771 -216.44604492 210.88745117 C-217.8416993 210.89744392 -217.8416993 210.89744392 -219.26554871 210.90763855 C-223.08204102 210.38078706 -225.86871752 208.83256975 -228.25390625 205.796875 C-229.19588427 202.40575413 -228.72642824 199.93696297 -227.87890625 196.546875 C-225.80954962 193.89736908 -224.65155319 192.69154323 -221.30987549 192.06585693 C-219.85759552 192.0791806 -219.85759552 192.0791806 -218.37597656 192.09277344 C-216.72471771 192.09322662 -216.72471771 192.09322662 -215.0401001 192.09368896 C-213.85768738 192.11433411 -212.67527466 192.13497925 -211.45703125 192.15625 C-210.24190857 192.16190979 -209.02678589 192.16756958 -207.77484131 192.17340088 C-203.89246282 192.19579766 -200.01100597 192.24600313 -196.12890625 192.296875 C-193.49740916 192.3169356 -190.86589761 192.33518713 -188.234375 192.3515625 C-181.78191106 192.39227205 -175.33144066 192.47056382 -168.87890625 192.546875 C-168.87890625 181.656875 -168.87890625 170.766875 -168.87890625 159.546875 C-175.453125 159.59908203 -175.453125 159.59908203 -182.16015625 159.65234375 C-185.67145533 159.67165878 -189.18273924 159.68791933 -192.69406128 159.70212555 C-196.39152826 159.71791774 -200.08878637 159.7389948 -203.78613281 159.77319336 C-207.35231067 159.80596942 -210.91828693 159.82376609 -214.48460388 159.83150673 C-216.49635472 159.83968599 -218.50802532 159.86307593 -220.51965332 159.88676453 C-235.12942739 159.88943279 -235.12942739 159.88943279 -240.38879395 155.20085144 C-244.40601485 150.70141495 -246.15672741 146.42941399 -245.9765625 140.45703125 C-245.97462891 139.50763672 -245.97269531 138.55824219 -245.97070312 137.58007812 C-245.95120587 135.60305601 -245.90441216 133.62611101 -245.83007812 131.65039062 C-245.85202636 128.70733198 -245.97593331 126.35284882 -246.87890625 123.546875 C-248.99927057 121.48902173 -251.04552309 120.18368344 -253.65625 118.81225586 C-258.03914116 116.31703125 -260.07916836 112.2225163 -262.19140625 107.796875 C-263.98940502 99.29724445 -263.43136457 92.02591366 -258.87890625 84.546875 C-254.65165847 78.23101663 -249.73253085 74.60201078 -242.2734375 72.98046875 C-234.70882534 71.96687474 -228.16524548 72.83219349 -221.65234375 76.95703125 C-215.44050025 81.87764885 -211.58373527 87.84416331 -210.40234375 95.7265625 C-210.06139404 103.35306913 -211.37630089 109.3220231 -215.87890625 115.546875 C-219.22749936 119.14212787 -222.47715612 121.34599993 -226.87890625 123.546875 C-227.20890625 129.486875 -227.53890625 135.426875 -227.87890625 141.546875 C-208.40890625 141.546875 -188.93890625 141.546875 -168.87890625 141.546875 C-168.87890625 136.596875 -168.87890625 131.646875 -168.87890625 126.546875 C-166.00620417 116.05046355 -161.62452802 108.53011412 -152.2109375 102.80078125 C-143.13819255 97.92247115 -137.07907301 98.546875 -125.87890625 98.546875 C-125.87890625 79.076875 -125.87890625 59.606875 -125.87890625 39.546875 C-131.81890625 39.876875 -137.75890625 40.206875 -143.87890625 40.546875 C-147.07194703 43.82941502 -147.07194703 43.82941502 -148.02734375 46.48046875 C-149.8541972 50.91352138 -153.93789848 52.98995203 -157.94140625 55.359375 C-164.1516736 57.73631361 -171.3911488 57.59175102 -177.6953125 55.703125 C-184.49575082 52.62994982 -189.70934849 48.04870736 -192.97265625 41.27734375 C-195.98691141 33.08582624 -195.38536206 25.49235465 -191.87890625 17.546875 C-187.33325245 10.53598568 -181.64617012 7.13596296 -173.87890625 4.546875 C-164.13817339 3.64719808 -157.5637251 6.0296912 -149.73828125 11.65625 C-147.87890625 13.546875 -147.87890625 13.546875 -146.31640625 17.20703125 C-145.38632829 19.10657176 -145.38632829 19.10657176 -143.87890625 20.546875 C-140.30432207 21.49135371 -136.80544294 21.34321984 -133.12890625 21.234375 C-125.78750455 21.10187644 -120.07820038 21.26422937 -113.87890625 25.546875 C-109.81571973 29.61006152 -108.08589339 33.90021834 -107.63839722 39.62216187 C-107.64283844 40.71026154 -107.64727966 41.79836121 -107.65185547 42.91943359 C-107.65208206 44.78068375 -107.65208206 44.78068375 -107.65231323 46.67953491 C-107.662524 48.01812911 -107.67295595 49.35672163 -107.68359375 50.6953125 C-107.68732812 52.07679031 -107.69017309 53.45827078 -107.69216919 54.8397522 C-107.69977233 58.45981271 -107.71939188 62.07971043 -107.74157715 65.69970703 C-107.76210746 69.40004231 -107.77129611 73.1004049 -107.78125 76.80078125 C-107.80157765 84.04962251 -107.84073205 91.29801788 -107.87890625 98.546875 C-96.98890625 98.546875 -86.09890625 98.546875 -74.87890625 98.546875 C-74.94851562 94.63457031 -75.018125 90.72226563 -75.08984375 86.69140625 C-75.13663702 82.90196654 -75.1730686 79.11255902 -75.20849609 75.32299805 C-75.23866865 72.68938795 -75.27961242 70.05587834 -75.33154297 67.42260742 C-75.40433026 63.63695493 -75.43835973 59.85263079 -75.46484375 56.06640625 C-75.49581146 54.88915482 -75.52677917 53.71190338 -75.5586853 52.49897766 C-75.56196515 44.53242027 -75.56196515 44.53242027 -73.58164978 41.67514038 C-71.41662224 39.79788156 -69.4881309 38.64930156 -66.6484375 38.171875 C-63.76815723 38.72378499 -61.35524158 39.20883057 -58.94140625 40.921875 C-56.82513907 44.15851893 -56.75648146 47.00603652 -56.76538086 50.75268555 C-56.76545639 51.81355881 -56.76553192 52.87443207 -56.76560974 53.967453 C-56.77077103 55.11127945 -56.77593231 56.2551059 -56.78125 57.43359375 C-56.78337242 59.19181206 -56.78337242 59.19181206 -56.78553772 60.98554993 C-56.79114237 64.73518407 -56.80369569 68.48475885 -56.81640625 72.234375 C-56.82142065 74.77408768 -56.82598366 77.3138013 -56.83007812 79.85351562 C-56.84026309 86.08467678 -56.85983774 92.31570931 -56.87890625 98.546875 C-45.98890625 98.546875 -35.09890625 98.546875 -23.87890625 98.546875 C-23.86105371 91.212031 -23.86416999 83.88355022 -23.92163086 76.54980469 C-23.93477654 74.05504757 -23.93549956 71.56019298 -23.92358398 69.06542969 C-23.90860961 65.48013772 -23.93819573 61.8975686 -23.9765625 58.3125 C-23.95517967 56.63731293 -23.95517967 56.63731293 -23.93336487 54.92828369 C-23.8196131 49.466121 -23.8196131 49.466121 -26.43081665 44.98919678 C-28.53173339 43.72887635 -28.53173339 43.72887635 -31.87890625 42.546875 C-37.33762919 37.80996666 -40.40611696 32.03837324 -41.16015625 24.875 C-41.43363197 16.6251491 -39.89642187 10.77572879 -34.75390625 4.296875 C-25.64422125 -5.32416446 -11.40830345 -6.66889331 0 0 Z M-20.81640625 16.609375 C-23.2260788 19.44312229 -23.2260788 19.44312229 -22.87890625 23.171875 C-21.78825968 27.07859116 -21.78825968 27.07859116 -18.87890625 29.546875 C-16.51428133 30.55322746 -16.51428133 30.55322746 -13.87890625 30.546875 C-10.39256024 28.92531871 -9.03588431 27.78234208 -6.87890625 24.546875 C-7.05223753 19.64930111 -7.05223753 19.64930111 -9.56640625 15.609375 C-14.07855543 13.53622538 -16.74971001 13.75403509 -20.81640625 16.609375 Z M-173.75390625 24.171875 C-176.12420005 26.8210269 -176.87890625 28.00379347 -176.87890625 31.546875 C-175.49332838 34.38401064 -174.10888921 36.31689204 -171.87890625 38.546875 C-168.17524051 39.0406971 -166.30645561 38.77923878 -163.00390625 36.984375 C-160.56790545 34.63624894 -160.56790545 34.63624894 -160.37890625 31.046875 C-160.98622402 26.65079916 -160.98622402 26.65079916 -163.87890625 23.546875 C-168.02489303 22.31843447 -169.94526798 22.01916641 -173.75390625 24.171875 Z M132.12109375 25.546875 C130.55679127 28.67547995 130.76482091 31.10290425 131.12109375 34.546875 C133.05235477 37.22526073 133.05235477 37.22526073 136.12109375 38.546875 C139.64524945 38.48611369 142.03726341 38.26942856 144.99609375 36.296875 C146.5057272 33.9485563 146.9877243 32.34763352 147.12109375 29.546875 C145.49953746 26.06052899 144.35656083 24.70385306 141.12109375 22.546875 C136.82722364 22.546875 135.53242891 23.14972056 132.12109375 25.546875 Z M-242.87890625 93.546875 C-245.2241356 96.43200478 -245.2241356 96.43200478 -244.75390625 100.046875 C-244.16308186 103.49504776 -244.16308186 103.49504776 -242.25390625 105.484375 C-238.86721982 106.99947156 -236.54473362 107.07056462 -232.87890625 106.546875 C-230.20052052 104.61561398 -230.20052052 104.61561398 -228.87890625 101.546875 C-228.93966756 98.0227193 -229.15635269 95.63070534 -231.12890625 92.671875 C-235.72426722 89.71771438 -238.62478517 90.32754013 -242.87890625 93.546875 Z M201.12109375 93.546875 C198.84900672 95.41399529 198.84900672 95.41399529 198.74609375 98.359375 C199.21764622 102.36757103 200.08215116 103.89754044 203.12109375 106.546875 C206.78692112 107.07056462 209.10940732 106.99947156 212.49609375 105.484375 C214.95399089 102.55380533 215.12109375 100.32598116 215.12109375 96.546875 C213.32231217 93.36441528 212.06999794 91.93616903 208.68359375 90.546875 C205.35231232 90.546875 203.78285745 91.6045069 201.12109375 93.546875 Z M-148.31640625 123.609375 C-150.20489781 127.15973913 -151.00356869 129.77107611 -151.01312733 133.73554516 C-151.01758517 134.59350002 -151.02204301 135.45145489 -151.02663594 136.33540839 C-151.02645158 137.27838619 -151.02626722 138.22136399 -151.02607727 139.19291687 C-151.02975396 140.1943895 -151.03343065 141.19586213 -151.03721875 142.22768241 C-151.0482733 145.59930316 -151.05210244 148.97089312 -151.0559082 152.3425293 C-151.06217151 154.75360716 -151.06881819 157.16468406 -151.07582092 159.57575989 C-151.09506078 166.82266123 -151.10565106 174.06956005 -151.11454871 181.31647918 C-151.11893266 184.72991112 -151.12429921 188.14334151 -151.12953758 191.55677223 C-151.14654965 202.90518592 -151.16104343 214.25359864 -151.16828632 225.60202312 C-151.17019619 228.54677519 -151.17211653 231.49152726 -151.17407227 234.4362793 C-151.17455601 235.16817554 -151.17503975 235.90007179 -151.17553815 236.65414671 C-151.18383699 248.50820933 -151.2091715 260.36217099 -151.24165294 272.21618953 C-151.27473523 284.38881874 -151.29273615 296.56139667 -151.29593056 308.73407108 C-151.29809463 315.56762217 -151.30682796 322.40102606 -151.33239174 329.23453331 C-151.35638777 335.66378659 -151.35991704 342.09284691 -151.34963036 348.5221386 C-151.34913419 350.88118622 -151.35547823 353.24024676 -151.3691864 355.59925461 C-151.38686389 358.82179289 -151.37981875 362.04337611 -151.36665344 365.26591492 C-151.37762269 366.19773911 -151.38859193 367.1295633 -151.39989358 368.08962458 C-151.34171096 373.9953847 -150.35118238 378.66497274 -146.87890625 383.546875 C-142.61548717 386.94020856 -139.12552688 388.66799117 -133.69023609 388.68109608 C-132.83228123 388.68555392 -131.97432636 388.69001176 -131.09037286 388.69460469 C-129.67590616 388.69432815 -129.67590616 388.69432815 -128.23286438 388.69404602 C-126.73065544 388.69956105 -126.73065544 388.69956105 -125.19809884 388.7051875 C-121.82647809 388.71624205 -118.45488813 388.72007119 -115.08325195 388.72387695 C-112.67217409 388.73014026 -110.26109719 388.73678694 -107.85002136 388.74378967 C-100.60312002 388.76302953 -93.3562212 388.77361981 -86.10930207 388.78251746 C-82.69587013 388.78690141 -79.28243974 388.79226796 -75.86900902 388.79750633 C-64.52059533 388.8145184 -53.17218261 388.82901218 -41.82375813 388.83625507 C-38.87900606 388.83816494 -35.93425399 388.84008528 -32.98950195 388.84204102 C-32.25760571 388.84252476 -31.52570946 388.8430085 -30.77163454 388.8435069 C-18.91757192 388.85180574 -7.06361026 388.87714025 4.79040828 388.90962169 C16.96303749 388.94270398 29.13561542 388.9607049 41.30828983 388.96389931 C48.14184092 388.96606338 54.97524481 388.97479671 61.80875206 389.00036049 C68.23800534 389.02435652 74.66706566 389.02788579 81.09635735 389.01759911 C83.45540497 389.01710294 85.81446551 389.02344698 88.17347336 389.03715515 C91.39601164 389.05483264 94.61759486 389.0477875 97.84013367 389.03462219 C98.77195786 389.04559144 99.70378205 389.05656068 100.66384333 389.06786233 C106.56960345 389.00967971 111.23919149 388.01915113 116.12109375 384.546875 C119.51442731 380.28345592 121.24220992 376.79349563 121.25531483 371.35820484 C121.26200159 370.07127254 121.26200159 370.07127254 121.26882344 368.75834161 C121.26863908 367.81536381 121.26845472 366.87238601 121.26826477 365.90083313 C121.2737798 364.39862419 121.2737798 364.39862419 121.27940625 362.86606759 C121.2904608 359.49444684 121.29428994 356.12285688 121.2980957 352.7512207 C121.30435901 350.34014284 121.31100569 347.92906594 121.31800842 345.51799011 C121.33724828 338.27108877 121.34783856 331.02418995 121.35673621 323.77727082 C121.36112016 320.36383888 121.36648671 316.95040849 121.37172508 313.53697777 C121.38873715 302.18856408 121.40323093 290.84015136 121.41047382 279.49172688 C121.41238369 276.54697481 121.41430403 273.60222274 121.41625977 270.6574707 C121.41674351 269.92557446 121.41722725 269.19367821 121.41772565 268.43960329 C121.42602449 256.58554067 121.451359 244.73157901 121.48384044 232.87756047 C121.51692273 220.70493126 121.53492365 208.53235333 121.53811806 196.35967892 C121.54028213 189.52612783 121.54901546 182.69272394 121.57457924 175.85921669 C121.59857527 169.42996341 121.60210454 163.00090309 121.59181786 156.5716114 C121.59132169 154.21256378 121.59766573 151.85350324 121.6113739 149.49449539 C121.62905139 146.27195711 121.62200625 143.05037389 121.60884094 139.82783508 C121.61981019 138.89601089 121.63077943 137.9641867 121.64208108 137.00412542 C121.58389846 131.0983653 120.59336988 126.42877726 117.12109375 121.546875 C112.85767467 118.15354144 109.36771438 116.42575883 103.93242359 116.41265392 C103.07446873 116.40819608 102.21651386 116.40373824 101.33256036 116.39914531 C100.38958256 116.39932967 99.44660476 116.39951403 98.47505188 116.39970398 C97.47357925 116.39602729 96.47210662 116.3923506 95.44028634 116.3885625 C92.06866559 116.37750795 88.69707563 116.37367881 85.32543945 116.36987305 C82.91436159 116.36360974 80.50328469 116.35696306 78.09220886 116.34996033 C70.84530752 116.33072047 63.5984087 116.32013019 56.35148957 116.31123254 C52.93805763 116.30684859 49.52462724 116.30148204 46.11119652 116.29624367 C34.76278283 116.2792316 23.41437011 116.26473782 12.06594563 116.25749493 C9.12119356 116.25558506 6.17644149 116.25366472 3.23168945 116.25170898 C2.49979321 116.25122524 1.76789696 116.2507415 1.01382204 116.2502431 C-10.84024058 116.24194426 -22.69420224 116.21660975 -34.54822078 116.18412831 C-46.72084999 116.15104602 -58.89342792 116.1330451 -71.06610233 116.12985069 C-77.89965342 116.12768662 -84.73305731 116.11895329 -91.56656456 116.09338951 C-97.99581784 116.06939348 -104.42487816 116.06586421 -110.85416985 116.07615089 C-113.21321747 116.07664706 -115.57227801 116.07030302 -117.93128586 116.05659485 C-121.15382414 116.03891736 -124.37540736 116.0459625 -127.59794617 116.05912781 C-128.52977036 116.04815856 -129.46159455 116.03718932 -130.42165583 116.02588767 C-137.85633146 116.09913293 -143.57121501 117.64746806 -148.31640625 123.609375 Z M-252.87890625 249.546875 C-253.71223958 252.546875 -253.71223958 252.546875 -252.87890625 255.546875 C-250.96223958 258.63020833 -250.96223958 258.63020833 -247.87890625 260.546875 C-244.3070396 260.546875 -241.99779026 260.29279767 -239.00390625 258.296875 C-237.4942728 255.9485563 -237.0122757 254.34763352 -236.87890625 251.546875 C-238.50046254 248.06052899 -239.64343917 246.70385306 -242.87890625 244.546875 C-247.87232581 243.62703455 -249.91800863 245.65540955 -252.87890625 249.546875 Z M208.12109375 248.546875 C206.95899156 250.94038995 206.95899156 250.94038995 207.12109375 253.546875 C208.74265004 257.03322101 209.88562667 258.38989694 213.12109375 260.546875 C218.01866764 260.37354372 218.01866764 260.37354372 222.05859375 257.859375 C223.48243325 254.7604302 223.67263202 252.92504688 223.12109375 249.546875 C220.8296295 246.53523627 219.36105557 244.82586641 215.62109375 243.984375 C212.22126568 244.74933632 210.54195123 246.05877148 208.12109375 248.546875 Z M-243.87890625 401.546875 C-245.05054295 404.91447687 -245.05054295 404.91447687 -244.87890625 408.546875 C-243.08012467 411.72933472 -241.82781044 413.15758097 -238.44140625 414.546875 C-235.0841232 414.546875 -233.5321102 413.55470502 -230.87890625 411.546875 C-228.52272083 408.66088112 -228.52272083 408.66088112 -229.06640625 405.046875 C-229.66264286 401.70101669 -229.66264286 401.70101669 -231.00390625 399.609375 C-235.4048823 397.11548857 -240.62721081 397.66985351 -243.87890625 401.546875 Z M200.68359375 400.671875 C198.85272516 404.04067321 198.47858653 405.77214506 199.12109375 409.546875 C201.05749917 412.20046762 202.49967998 413.3078697 205.55859375 414.484375 C208.93989126 414.56684567 210.45196119 413.5667591 213.12109375 411.546875 C215.4663231 408.66174522 215.4663231 408.66174522 214.99609375 405.046875 C214.40526936 401.59870224 214.40526936 401.59870224 212.49609375 399.609375 C207.98468128 397.59111153 204.48547883 397.35741108 200.68359375 400.671875 Z M-175.87890625 470.546875 C-176.95915283 472.94797717 -176.95915283 472.94797717 -176.87890625 475.546875 C-175.25734996 479.03322101 -174.11437333 480.38989694 -170.87890625 482.546875 C-167.21934723 482.41617646 -164.79475056 482.31500249 -161.94140625 479.921875 C-160.42630969 476.53518857 -160.35521663 474.21270237 -160.87890625 470.546875 C-163.46060076 467.58551954 -165.0677176 466.67931396 -168.94140625 466.046875 C-172.59196174 466.66824615 -173.71120248 467.57631798 -175.87890625 470.546875 Z M131.12109375 470.546875 C130.59740413 474.21270237 130.66849719 476.53518857 132.18359375 479.921875 C135.11416342 482.37977214 137.34198759 482.546875 141.12109375 482.546875 C144.30355347 480.74809342 145.73179972 479.49577919 147.12109375 476.109375 C147.12109375 472.77809357 146.06346185 471.2086387 144.12109375 468.546875 C142.25397346 466.27478797 142.25397346 466.27478797 139.30859375 466.171875 C135.30039772 466.64342747 133.77042831 467.50793241 131.12109375 470.546875 Z M-20.87890625 477.546875 C-23.2241356 480.43200478 -23.2241356 480.43200478 -22.75390625 484.046875 C-22.16995963 487.50889548 -22.16995963 487.50889548 -20.19140625 489.484375 C-17.09246145 490.9082145 -15.25707813 491.09841327 -11.87890625 490.546875 C-8.79557292 488.63020833 -8.79557292 488.63020833 -6.87890625 485.546875 C-6.87890625 481.97500835 -7.13298358 479.66575901 -9.12890625 476.671875 C-13.72426722 473.71771438 -16.62478517 474.32754013 -20.87890625 477.546875 Z " fill="#FFF" transform="translate(270.87890625,3.453125)"/>
<path d="M0 0 C3.34097404 1.33765754 4.9828016 3.04452324 7 6 C8.02128601 8.96937561 8.02128601 8.96937561 8.9128418 12.50805664 C9.16179341 13.48733549 9.16179341 13.48733549 9.41577435 14.48639774 C11.60722135 23.22297147 13.55778015 32.0183163 15.51953125 40.80859375 C15.94521137 42.70595053 16.37113547 44.60325258 16.79728699 46.50050354 C17.68740147 50.46615675 18.575582 54.43223592 19.4621582 58.39868164 C20.5755076 63.3796405 21.69213654 68.35985608 22.80999947 73.3398037 C24.95642398 82.90201 27.09512529 92.46590156 29.224123 102.0320034 C30.36650509 107.16373191 31.51477023 112.29407924 32.66938877 117.42306805 C33.3416674 120.41480015 34.00876858 123.40766824 34.67435265 126.40089607 C34.97803211 127.76161652 35.28386452 129.12185862 35.59205055 130.48156548 C36.00954732 132.32501179 36.41844605 134.17039908 36.8269043 136.01586914 C37.05532516 137.0350795 37.28374603 138.05428986 37.51908875 139.10438538 C38.24285958 143.46228176 38.58861306 146.79601873 36.625 150.8125 C35 153 35 153 33 154 C25.91195932 154.69718433 25.91195932 154.69718433 22.53173828 152.11303711 C18.91097374 148.34629313 18.32528889 143.64144407 17.32421875 138.66796875 C17.00189018 137.18034782 17.00189018 137.18034782 16.67304993 135.66267395 C15.99364488 132.50773288 15.34028647 129.34804442 14.6875 126.1875 C14.23022565 124.04195254 13.77125995 121.89676481 13.31054688 119.75195312 C12.1841675 114.50566361 11.09320289 109.25374204 10 104 C-0.23 103.67 -10.46 103.34 -21 103 C-21.33 105.64 -21.66 108.28 -22 111 C-22.24317343 112.38220688 -22.50440622 113.76165564 -22.80029297 115.13354492 C-22.95070038 115.83754929 -23.10110779 116.54155365 -23.256073 117.26689148 C-23.41649078 117.99737198 -23.57690857 118.72785248 -23.7421875 119.48046875 C-23.91122589 120.25634842 -24.08026428 121.03222809 -24.25442505 121.83161926 C-24.61050262 123.45808765 -24.96859089 125.08411705 -25.32861328 126.7097168 C-25.87540476 129.18933555 -26.4085528 131.67165077 -26.94140625 134.15429688 C-27.29083322 135.74237111 -27.64106592 137.33026833 -27.9921875 138.91796875 C-28.14855682 139.65452194 -28.30492615 140.39107513 -28.46603394 141.14994812 C-29.64249784 146.36404734 -31.20721864 150.20721864 -35 154 C-39.80073273 154.55090376 -41.91189752 154.70273285 -46 152.0625 C-49.62637321 146.50961603 -48.15975708 140.24182515 -46.91923523 134.02278137 C-46.41774924 131.72633208 -45.90584432 129.43214197 -45.38549805 127.13989258 C-45.10746338 125.88025192 -44.82942871 124.62061127 -44.54296875 123.32279968 C-43.78510118 119.89127413 -43.01532944 116.46252399 -42.24285102 113.03426194 C-41.43352229 109.43494918 -40.63385681 105.83348824 -39.8327179 102.23234558 C-38.48678167 96.18958616 -37.13305146 90.14861303 -35.7746582 84.10864258 C-34.2066036 77.13597176 -32.65106979 70.16059712 -31.10216302 63.18364984 C-29.60805448 56.45495073 -28.10499521 49.72828113 -26.59790993 43.00247765 C-25.95828769 40.14721976 -25.32180321 37.29128957 -24.68787193 34.43476295 C-23.80196635 30.44505665 -22.90299734 26.45840394 -22.00268555 22.47192383 C-21.74229996 21.29203888 -21.48191437 20.11215393 -21.21363831 18.89651489 C-18.30675256 6.13796579 -18.30675256 6.13796579 -13.4375 1.625 C-8.77967943 -0.57687881 -5.05799951 -0.98594919 0 0 Z M-6 35 C-7.43163233 41.31546648 -8.85492437 47.63277086 -10.27246094 53.95141602 C-10.75557144 56.10028506 -11.24058263 58.24872773 -11.72753906 60.39672852 C-12.42754419 63.48603687 -13.12067761 66.57681906 -13.8125 69.66796875 C-14.14060669 71.10573921 -14.14060669 71.10573921 -14.4753418 72.57255554 C-14.67554932 73.47311172 -14.87575684 74.37366791 -15.08203125 75.30151367 C-15.34850464 76.48398933 -15.34850464 76.48398933 -15.62036133 77.69035339 C-16.13516202 80.43219244 -16.13516202 80.43219244 -16 85 C-8.74 85 -1.48 85 6 85 C4.53002321 75.52171213 2.61640717 66.18374634 0.54101562 56.82373047 C-0.00633348 54.34633359 -0.54229667 51.86662968 -1.078125 49.38671875 C-1.42639321 47.80713935 -1.77532649 46.2277064 -2.125 44.6484375 C-2.28339355 43.90894867 -2.44178711 43.16945984 -2.60498047 42.40756226 C-3.48898978 38.29152958 -3.48898978 38.29152958 -6 35 Z " fill="#FFF" transform="translate(210,179)"/>
<path d="M0 0 C1.16493484 -0.01606293 2.32986969 -0.03212585 3.53010559 -0.04867554 C8.86008243 -0.09303347 14.18991106 -0.13462982 19.52001953 -0.15722656 C22.33415258 -0.17056214 25.14755981 -0.1984061 27.96142578 -0.23925781 C32.01176198 -0.29805908 36.06131978 -0.31588645 40.11206055 -0.33056641 C41.37053299 -0.35323578 42.62900543 -0.37590515 43.9256134 -0.39926147 C53.63706201 -0.37569353 53.63706201 -0.37569353 56.7253418 2.59667969 C58.34840053 5.05952309 59.14137311 6.28402682 59.1237793 9.19287109 C59.14827148 9.83224609 59.17276367 10.47162109 59.19799805 11.13037109 C58.4362793 13.19287109 58.4362793 13.19287109 52.4362793 18.19287109 C46.1662793 18.19287109 39.8962793 18.19287109 33.4362793 18.19287109 C33.4362793 57.13287109 33.4362793 96.07287109 33.4362793 136.19287109 C39.7062793 136.19287109 45.9762793 136.19287109 52.4362793 136.19287109 C58.4362793 141.19287109 58.4362793 141.19287109 59.19799805 143.25537109 C59.16125977 144.21443359 59.16125977 144.21443359 59.1237793 145.19287109 C59.12764648 145.83224609 59.13151367 146.47162109 59.13549805 147.13037109 C58.00872371 150.45404064 56.45137193 152.47922724 53.4362793 154.19287109 C49.024554 154.9528814 44.64941941 154.86907419 40.18237305 154.82177734 C38.24286522 154.82539528 38.24286522 154.82539528 36.26417542 154.8290863 C33.53289202 154.83193886 30.80243118 154.81729681 28.07128906 154.78979492 C24.57495344 154.75567688 21.08008455 154.76174543 17.58367825 154.7804575 C14.24143107 154.79357984 10.89960998 154.77531166 7.55737305 154.75927734 C6.30315048 154.76423721 5.04892792 154.76919708 3.75669861 154.77430725 C2.00952293 154.75055275 2.00952293 154.75055275 0.22705078 154.72631836 C-1.30919701 154.71702049 -1.30919701 154.71702049 -2.8764801 154.70753479 C-6.25608337 154.06026892 -7.4223223 152.8267283 -9.5637207 150.19287109 C-10.99034289 147.33962672 -10.87405938 145.3583256 -10.5637207 142.19287109 C-8.41281619 138.85526064 -7.35959271 137.45816176 -3.5637207 136.19287109 C2.7062793 136.19287109 8.9762793 136.19287109 15.4362793 136.19287109 C15.4362793 97.25287109 15.4362793 58.31287109 15.4362793 18.19287109 C9.1662793 18.19287109 2.8962793 18.19287109 -3.5637207 18.19287109 C-8.5637207 15.19287109 -8.5637207 15.19287109 -10.5637207 12.19287109 C-11.06790305 7.55439352 -10.34326468 4.9345649 -7.5637207 1.19287109 C-4.93635389 -0.12081231 -2.94240101 0.03678811 0 0 Z " fill="#FFF" transform="translate(274.563720703125,178.80712890625)"/>
</svg>
