<?xml version="1.0" encoding="UTF-8"?>
<svg version="1.1" xmlns="http://www.w3.org/2000/svg" width="512" height="512">
<path d="M0 0 C1.21401902 -0.00698988 1.21401902 -0.00698988 2.45256367 -0.01412097 C5.16383904 -0.02606924 7.87461314 -0.01667621 10.58589268 -0.00736332 C12.5496406 -0.0115363 14.51338611 -0.01701362 16.47712713 -0.02368313 C21.87306388 -0.038161 27.26884819 -0.03388567 32.66479337 -0.02651632 C38.48425162 -0.02179278 44.30367651 -0.03428726 50.12312412 -0.04453373 C61.52359544 -0.06174282 72.92401169 -0.06255739 84.32449263 -0.05732083 C93.5891378 -0.05328195 102.85376667 -0.05471932 112.11841106 -0.06006908 C114.09513167 -0.06119172 114.09513167 -0.06119172 116.11178603 -0.06233703 C118.11766681 -0.06348222 120.12354759 -0.0646321 122.12942836 -0.06579627 C140.77816878 -0.07650126 159.42690318 -0.08122651 178.07564545 -0.07332611 C178.77862307 -0.07302894 179.4816007 -0.07273176 180.20588067 -0.07242559 C185.91456509 -0.06997665 191.62324943 -0.06736506 197.33193376 -0.06474145 C219.60098732 -0.05463841 241.86996548 -0.06299551 264.13900852 -0.086236 C289.15916312 -0.11230537 314.17927233 -0.12515745 339.19944102 -0.11804825 C352.44698367 -0.11449214 365.69446704 -0.11681511 378.94200039 -0.13429928 C390.21888457 -0.14899777 401.49566322 -0.14968744 412.77254527 -0.13222837 C418.52743336 -0.1236968 424.28213274 -0.12162151 430.03701115 -0.13687992 C435.30419484 -0.15067254 440.57102718 -0.14603376 445.83819026 -0.12664068 C447.74457 -0.12286369 449.65097752 -0.12585129 451.55733263 -0.13625234 C454.14812763 -0.14938355 456.73770307 -0.1378739 459.32844543 -0.12025452 C460.43942252 -0.13473028 460.43942252 -0.13473028 461.57284358 -0.14949849 C468.56110806 -0.05187319 474.61971731 2.67712577 479.53964329 7.69281673 C480.0823386 8.22519955 480.62503391 8.75758236 481.18417454 9.30609798 C484.94973224 14.3681515 486.10193784 19.07715071 486.11025333 25.30449295 C486.11521285 25.96803963 486.12017236 26.63158632 486.12528217 27.31524047 C486.13819802 29.5305962 486.12986678 31.7453452 486.12155247 33.96071529 C486.12644329 35.56830623 486.13263399 37.17589365 486.14001036 38.7834751 C486.15640884 43.19502024 486.15409213 47.60638665 486.14863539 52.01795161 C486.14596507 56.77814115 486.16049706 61.53828306 486.17273045 66.29845333 C486.19378681 75.62211498 486.19832517 84.94571444 486.19654256 94.26939706 C486.195235 101.84829068 486.1990388 109.42716491 486.20646763 117.00605488 C486.20856682 119.18906504 486.21066442 121.3720752 486.21276045 123.55508536 C486.21432574 125.18490481 486.21432574 125.18490481 486.21592265 126.84764989 C486.23482598 147.39826736 486.23377459 167.94884913 486.22695333 188.49947169 C486.22137825 207.296986 486.24220165 226.094364 486.27531379 244.89184646 C486.30905265 264.19499993 486.32421885 283.49808811 486.31959677 302.80127162 C486.31735222 313.6377525 486.32259311 324.4741074 486.34748936 335.31056309 C486.368505 344.53647571 486.37209183 353.76219328 486.35318977 362.98811392 C486.34403346 367.6942263 486.34288569 372.39997505 486.36354542 377.10605907 C486.38226269 381.41740042 486.37774369 385.7280805 486.3549996 390.03939673 C486.35081572 391.59588368 486.35500681 393.1524214 486.36859554 394.70885465 C486.4476764 404.43173416 485.81758198 412.77539378 479.00105524 420.28085834 C470.47789834 428.53832106 459.89317435 427.82443115 448.84628391 427.81268978 C447.13083283 427.82171463 445.4153882 427.83204362 443.69995213 427.84357357 C439.06006079 427.87108481 434.42029202 427.8804201 429.7803297 427.88642764 C424.92494597 427.89582662 420.06965324 427.92203125 415.2143259 427.94643307 C406.02770851 427.99005984 396.84110881 428.01863029 387.65441942 428.04175645 C377.19246995 428.0688286 366.73061218 428.11273889 356.26872826 428.15804517 C334.75491597 428.25083672 313.24107624 428.3225426 291.72714329 428.38031673 C292.32070652 430.11744562 292.92425001 431.85116587 293.53183079 433.58344173 C293.8668259 434.54927181 294.20182102 435.51510189 294.54696751 436.51019955 C298.54818991 446.24093404 306.56183139 452.52488358 315.90683079 456.85297298 C320.87935288 458.8595319 325.6865866 460.48486537 330.97714329 461.38031673 C340.08439525 463.00134864 346.96307909 468.29912475 352.72714329 475.38031673 C357.92095843 483.65139229 358.53712236 491.70556673 357.72714329 501.38031673 C355.37656145 506.42971476 351.72782485 509.87997595 346.72714329 512.38031673 C343.69189669 512.48521246 340.67924192 512.52810924 337.64346409 512.52748775 C336.69043738 512.53116444 335.73741067 512.53484113 334.75550437 512.53862923 C331.54194376 512.54969769 328.32841545 512.55351526 325.1148386 512.55731869 C322.81888825 512.56358093 320.52293891 512.57022751 318.2269907 512.57723141 C311.97484307 512.59466294 305.72270311 512.60519894 299.47053719 512.61343694 C295.56716687 512.6185823 291.66379896 512.62465822 287.76043034 512.63094807 C276.9550627 512.64782067 266.14969802 512.66245571 255.34431934 512.66969681 C252.53963564 512.67160673 249.73495195 512.67352706 246.93026829 512.67548275 C246.2331693 512.67596649 245.53607031 512.67645023 244.8178471 512.67694863 C233.5249552 512.68524916 222.23216922 512.71058591 210.93932357 512.74306343 C199.34756002 512.77612904 187.75585577 512.79381231 176.1640451 512.79734105 C169.65470577 512.79969534 163.1455338 512.80870517 156.63623905 512.83380222 C150.51312429 512.85702836 144.39028773 512.86133804 138.26714039 512.85104084 C136.01851954 512.85054405 133.76988526 512.85690647 131.52130604 512.87059689 C128.45345384 512.88823171 125.38660913 512.88125063 122.31875706 512.86806393 C120.98129614 512.8845178 120.98129614 512.8845178 119.61681581 512.90130407 C114.15976581 512.84460171 111.05746726 512.01052663 106.72714329 508.38031673 C101.56793969 502.52392347 101.38273324 498.7773315 101.44589329 491.06391048 C101.84069609 485.89309043 103.2583249 481.90377674 105.72714329 477.38031673 C106.07776829 476.73449642 106.42839329 476.08867611 106.78964329 475.42328548 C111.23842967 468.33303219 118.99731524 464.0925371 126.72714329 461.38031673 C128.28597489 461.06964051 129.84899042 460.77955529 131.41464329 460.50531673 C143.76617042 458.18120541 154.79459048 452.31883703 162.16464329 441.94281673 C164.09547643 438.99757573 165.21552163 436.04716801 166.30551243 432.71991634 C166.57263538 431.90776165 166.83975834 431.09560696 167.11497593 430.25884151 C167.41799877 429.32897175 167.41799877 429.32897175 167.72714329 428.38031673 C166.39584605 428.37811689 166.39584605 428.37811689 165.03765392 428.37587261 C143.41998029 428.33878526 121.8024632 428.27974486 100.1849165 428.19641399 C89.73072783 428.15664216 79.27661424 428.12424022 68.82235813 428.10932064 C59.70807342 428.09629454 50.59395403 428.06930531 41.47976243 428.02570367 C36.65597105 428.0031105 31.83238341 427.98740477 27.00853443 427.98843288 C22.46285788 427.98918076 17.91763134 427.97117884 13.37207127 427.9391489 C11.70890831 427.93067009 10.04569477 427.9288862 8.38251972 427.93451405 C-1.61998315 427.96383724 -10.79543927 427.81058085 -18.92910671 421.23187923 C-19.53754421 420.49711361 -20.14598171 419.76234798 -20.77285671 419.00531673 C-21.40191921 418.27570736 -22.03098171 417.54609798 -22.67910671 416.79437923 C-25.88713793 411.93515548 -26.52326441 407.31109841 -26.53012562 401.57360172 C-26.53363169 400.91060969 -26.53713777 400.24761766 -26.54075009 399.56453496 C-26.55004652 397.34517725 -26.54514541 395.12608295 -26.54028225 392.90671444 C-26.54401939 391.29856334 -26.54862117 389.69041405 -26.55401289 388.08226764 C-26.56625025 383.66463402 -26.56598156 379.24707609 -26.56362414 374.82942939 C-26.56321617 370.06449926 -26.57425322 365.29959345 -26.58373928 360.53467464 C-26.60035385 351.2001936 -26.60584902 341.86573781 -26.60696404 332.53124322 C-26.60791421 324.94468475 -26.61202297 317.35813462 -26.61836529 309.77157879 C-26.63597825 288.26591268 -26.64520397 266.76026653 -26.64370434 245.25459315 C-26.64362443 244.09515908 -26.64354452 242.93572501 -26.64346218 241.74115658 C-26.64338042 240.58030831 -26.64329866 239.41946004 -26.64321442 238.22343455 C-26.64240131 219.40512763 -26.66154522 200.58690071 -26.68973891 181.76861693 C-26.71845451 162.44969064 -26.73227997 143.13080338 -26.73055136 123.8118552 C-26.72988705 112.96426094 -26.7353977 102.11675058 -26.75690746 91.26917553 C-26.77510173 82.03442309 -26.77948095 72.79979258 -26.76588862 63.56502999 C-26.75935036 58.85314184 -26.75927273 54.14148771 -26.77659512 49.4296217 C-26.79229279 45.11534631 -26.78949616 40.80149116 -26.77202685 36.48722623 C-26.76894968 34.92737938 -26.77261635 33.36750141 -26.783747 31.80769123 C-26.84593068 22.47461586 -26.40748791 15.82569349 -20.59707546 8.17328548 C-20.05695827 7.6434808 -19.51684109 7.11367611 -18.96035671 6.56781673 C-18.4279739 6.02512142 -17.89559109 5.48242611 -17.34707546 4.92328548 C-11.87053493 0.8493994 -6.69851249 -0.06074386 0 0 Z M-6.72896647 20.05305028 C-8.65734759 22.95989986 -8.77023004 24.64281211 -8.76504803 28.11994457 C-8.77301151 29.29869907 -8.780975 30.47745358 -8.7891798 31.69192791 C-8.77752914 32.98726578 -8.76587849 34.28260365 -8.75387478 35.61719418 C-8.75562441 37.0032244 -8.75913195 38.38925335 -8.76425076 39.77527523 C-8.77323898 43.59574872 -8.75714757 47.41577533 -8.73714763 51.23619205 C-8.71971201 55.41480522 -8.72552401 59.59339697 -8.7284193 63.77203655 C-8.7305482 71.88780422 -8.71205712 80.00339524 -8.68641399 88.11911748 C-8.65764608 97.50421579 -8.65443677 106.88920755 -8.65127468 116.2743597 C-8.63026197 141.05970677 -8.57441766 165.84501439 -8.52285671 190.63031673 C-8.44035671 245.98781673 -8.35785671 301.34531673 -8.27285671 358.38031673 C148.80714329 358.38031673 305.88714329 358.38031673 467.72714329 358.38031673 C467.80964329 303.02281673 467.89214329 247.66531673 467.97714329 190.63031673 C468.0135593 173.12517025 468.04997532 155.62002377 468.08749485 137.5844183 C468.10086926 121.94767061 468.10086926 121.94767061 468.10891819 106.31091976 C468.11265783 99.3243745 468.12737036 92.33795627 468.14944553 85.35144711 C468.1748462 77.30060963 468.18650137 69.24989456 468.18092309 61.19901668 C468.17850572 57.07761267 468.18242846 52.9564825 468.20400381 48.83512831 C468.22337689 45.11196138 468.22449805 41.38926356 468.21074772 37.66607571 C468.2082339 35.67466483 468.22555574 33.68325983 468.24346638 31.69192791 C468.23152115 29.92379616 468.23152115 29.92379616 468.2193346 28.11994457 C468.22085348 27.10077521 468.22237236 26.08160584 468.22393727 25.03155255 C467.88993796 22.29743615 467.88993796 22.29743615 466.18325305 20.05305028 C462.82393501 17.76518674 459.86268242 17.82722037 455.93719578 17.87695217 C454.74683196 17.86823153 454.74683196 17.86823153 453.5324204 17.85933471 C450.85662658 17.84466424 448.18173996 17.85865243 445.50595188 17.87238216 C443.57493907 17.86777603 441.64392975 17.86142506 439.71292782 17.85347319 C434.39365634 17.83671726 429.07467054 17.84505464 423.7553978 17.85741806 C418.02389331 17.86644066 412.29243915 17.85251272 406.56094456 17.84149837 C395.3278243 17.82367869 384.09481073 17.82756849 372.86168623 17.83914894 C363.73518495 17.84816943 354.60871366 17.84941326 345.48220921 17.84505367 C343.53645089 17.84413427 343.53645089 17.84413427 341.55138433 17.8431963 C338.91649738 17.84191745 336.28161044 17.8406206 333.64672351 17.83930594 C309.6241251 17.82821569 285.60158443 17.83973164 261.57899532 17.86067633 C239.63941446 17.8796594 217.69992646 17.87796092 195.76034641 17.85883236 C171.12296139 17.83742356 146.48563252 17.82898876 121.84823895 17.84128141 C119.22285176 17.84255566 116.59746457 17.84381314 113.97207737 17.84505367 C112.68021656 17.84567077 111.38835576 17.84628788 110.05734766 17.84692368 C100.93805057 17.85038253 91.81878636 17.84453672 82.69949436 17.83513546 C71.59149877 17.82393613 60.48361629 17.82691197 49.37563372 17.84825844 C43.70430078 17.85879667 38.03315668 17.86284353 32.36182499 17.84966183 C27.17552399 17.83778946 21.98958782 17.84421497 16.80332017 17.86557204 C14.92182346 17.87006006 13.04029626 17.86772293 11.15881896 17.85806888 C8.61113124 17.84599383 6.06471108 17.85828822 3.5170908 17.87695217 C2.77790858 17.86758751 2.03872635 17.85822284 1.27714467 17.8485744 C-2.01622811 17.89716 -3.98102212 18.18156279 -6.72896647 20.05305028 Z M-8.27285671 376.38031673 C-8.27285671 385.62031673 -8.27285671 394.86031673 -8.27285671 404.38031673 C-3.54951619 409.48221288 -3.54951619 409.48221288 2.3847146 410.04499465 C3.48430561 410.02743591 3.48430561 410.02743591 4.60611057 410.00952244 C5.79269064 410.02042324 5.79269064 410.02042324 7.00324202 410.03154427 C9.66461899 410.04985028 12.32456493 410.0324136 14.98593235 410.01523495 C16.90884865 410.02099393 18.83175945 410.02893355 20.7546587 410.03887117 C26.04699135 410.05979825 31.33887483 410.04940262 36.63120937 410.03394008 C42.33545996 410.02265449 48.03963183 410.0400754 53.74386692 410.05383968 C64.92172552 410.07610646 76.09941652 410.07125555 87.27728176 410.05677648 C96.35941922 410.04549777 105.44150962 410.04394741 114.52365208 410.04939556 C115.81484935 410.05016173 117.10604662 410.05092789 118.43637109 410.05171727 C121.05917678 410.05331585 123.68198245 410.05493692 126.30478811 410.05658023 C150.21356018 410.07044086 174.12223688 410.05605172 198.03099376 410.02986724 C219.86335305 410.00613865 241.69556652 410.00826176 263.52792454 410.0321722 C288.04887456 410.05893729 312.56973092 410.06947443 337.09069538 410.05411088 C339.70400841 410.05251809 342.31732145 410.05094624 344.9306345 410.04939556 C346.85947983 410.04823849 346.85947983 410.04823849 348.82729173 410.04705805 C357.90155411 410.0427357 366.97576487 410.05003913 376.05001926 410.06179333 C387.10418721 410.07579702 398.15817757 410.0720632 409.2123251 410.04538961 C414.85547126 410.03222283 420.49832103 410.02714787 426.14146519 410.04363537 C431.30318176 410.05848853 436.46432605 410.0504233 441.62599039 410.02374761 C443.49737877 410.01814294 445.36881508 410.02104726 447.24017286 410.03312655 C449.77686917 410.04824975 452.31158455 410.03282545 454.848176 410.00952244 C455.94776701 410.02708118 455.94776701 410.02708118 457.06957197 410.04499465 C462.92774479 409.93682646 463.07986073 409.02759929 467.72714329 404.38031673 C467.72714329 395.14031673 467.72714329 385.90031673 467.72714329 376.38031673 C310.64714329 376.38031673 153.56714329 376.38031673 -8.27285671 376.38031673 Z M186.72714329 427.38031673 C185.73714329 431.34031673 184.74714329 435.30031673 183.72714329 439.38031673 C182.33261204 442.86078548 182.33261204 442.86078548 180.91464329 445.56781673 C180.45444798 446.46887142 179.99425266 447.36992611 179.52011204 448.29828548 C177.11024737 452.44073258 174.38550112 456.39277999 171.72714329 460.38031673 C210.00714329 460.38031673 248.28714329 460.38031673 287.72714329 460.38031673 C285.41714329 456.75031673 283.10714329 453.12031673 280.72714329 449.38031673 C276.4663561 441.73026701 274.95307756 436.28405384 272.72714329 427.38031673 C244.34714329 427.38031673 215.96714329 427.38031673 186.72714329 427.38031673 Z M121.72714329 486.38031673 C119.74643519 489.49285803 119.72714329 490.4791131 119.72714329 494.38031673 C192.32714329 494.38031673 264.92714329 494.38031673 339.72714329 494.38031673 C338.86489574 487.25543526 338.86489574 487.25543526 334.72714329 482.38031673 C329.22824979 478.53109129 324.5807097 478.23207553 318.0041666 478.23987484 C317.22164581 478.23690372 316.43912502 478.2339326 315.63289148 478.23087144 C313.00829207 478.22219325 310.38373833 478.22067694 307.75912571 478.21918392 C305.87829078 478.21455515 303.99745678 478.20953041 302.11662388 478.20413876 C297.00498386 478.19101905 291.89335698 478.18457071 286.78170276 478.1801281 C283.58821959 478.17719688 280.39474002 478.17309199 277.20125866 478.16862392 C267.20971416 478.15495056 257.21817787 478.14528293 247.22662467 478.14142203 C235.69244975 478.13694054 224.1583933 478.11938771 212.62425441 478.09042144 C203.70863673 478.06880823 194.7930524 478.05871796 185.8774088 478.05738091 C180.55242949 478.0563327 175.22756156 478.05042115 169.90260983 478.0325613 C164.89328086 478.01608676 159.88414708 478.01392216 154.87480068 478.02270031 C153.03780437 478.02347099 151.2007976 478.01912385 149.36382771 478.00924206 C146.85267665 477.99652736 144.34221743 478.00239656 141.8310709 478.01282406 C141.1071272 478.00476765 140.38318349 477.99671125 139.6373021 477.98841071 C131.98050895 478.06258148 126.73932181 480.50890761 121.72714329 486.38031673 Z " fill="#FFF" transform="translate(26.27285671234131,-0.38031673431396484)"/>
<path d="M0 0 C1.06950571 -0.00352835 1.06950571 -0.00352835 2.16061759 -0.00712797 C4.57410008 -0.01383873 6.98752899 -0.01335913 9.40102005 -0.01294994 C11.1391366 -0.01624728 12.87725238 -0.01997257 14.61536717 -0.02409142 C19.41073009 -0.03413437 24.2060805 -0.03783189 29.00145245 -0.04048073 C34.16586657 -0.04437699 39.33027072 -0.05395576 44.4946785 -0.0626936 C56.97599718 -0.08247701 69.4573167 -0.09252649 81.93864715 -0.10142139 C87.81145333 -0.10580112 93.6842586 -0.11116873 99.55706406 -0.11641026 C119.07118289 -0.13342423 138.58530115 -0.14791948 158.09942627 -0.155159 C163.16604234 -0.157069 168.2326584 -0.15898931 173.29927444 -0.16094494 C175.1882763 -0.16167055 175.1882763 -0.16167055 177.1154398 -0.16241082 C197.52611132 -0.1707151 217.9367243 -0.196058 238.34737024 -0.22852562 C259.28659349 -0.26156342 280.22578697 -0.27960478 301.16503644 -0.28280324 C312.92812938 -0.28497135 324.69113696 -0.29376402 336.45420456 -0.31926441 C346.47009943 -0.34092663 356.48588821 -0.34904394 366.50180385 -0.33929763 C371.61441672 -0.33473994 376.72681051 -0.33672419 381.83939362 -0.35605907 C386.5176225 -0.37359893 391.19547099 -0.37276808 395.87370339 -0.35716178 C397.56822557 -0.35477169 399.26277346 -0.35918131 400.95725617 -0.37099043 C403.25760372 -0.38603187 405.55658988 -0.37649213 407.85690308 -0.36076355 C409.77476313 -0.36222876 409.77476313 -0.36222876 411.73136783 -0.36372358 C416.98798298 0.39524453 420.04033499 2.84039538 423.49263382 6.75922108 C425.8611127 10.0926358 426.30621653 11.77203945 426.31714821 15.80892086 C426.32476002 17.29664523 426.32476002 17.29664523 426.33252561 18.81442463 C426.33302337 19.91206226 426.33352113 21.00969988 426.33403397 22.14059925 C426.33841622 23.300476 426.34279847 24.46035274 426.34731352 25.65537727 C426.35839476 28.88486642 426.36493115 32.1143282 426.36949468 35.34383202 C426.3754449 38.82320165 426.38705632 42.30255335 426.39778519 45.7819109 C426.42232443 54.19052524 426.43693956 62.59914552 426.44984525 71.00778466 C426.4535564 73.3824836 426.4575297 75.75718194 426.46159792 78.13188028 C426.48683613 92.87529544 426.50889148 107.61871152 426.52132607 122.36214352 C426.52425582 125.7783569 426.52721747 129.19457026 426.53023148 132.61078358 C426.53097753 133.4598793 426.53172358 134.30897502 426.53249224 135.18380092 C426.54514337 148.93586756 426.57836197 162.68780483 426.62003331 176.43981101 C426.66245782 190.55602873 426.68602179 204.67218025 426.69124663 218.78846157 C426.69466042 226.71528702 426.70641144 234.64191041 426.73934937 242.56867313 C426.76735837 249.3203877 426.77834563 256.0718588 426.7671539 262.82362695 C426.76196908 266.26777973 426.76484131 269.71142273 426.78961945 273.15550137 C426.81224217 276.89274112 426.80404578 280.62869535 426.78813553 284.36594105 C426.80201762 285.45019434 426.8158997 286.53444763 426.83020246 287.65155709 C426.75977883 294.36264111 425.64292435 298.9869345 421.18013382 304.13422108 C416.05424138 308.00989585 411.51142178 308.25940766 405.21066952 308.26564884 C404.15334704 308.26872779 404.15334704 308.26872779 403.0746645 308.27186894 C400.70084254 308.27754597 398.32707846 308.27608083 395.95325089 308.27466297 C394.23886988 308.2772462 392.52448948 308.28025924 390.81010991 308.28366637 C386.08960389 308.29174449 381.36911306 308.29352639 376.64860094 308.29426384 C371.56123278 308.29611296 366.47387253 308.30365954 361.38650894 308.31039906 C350.2585326 308.32398822 339.13055985 308.33000788 328.00257659 308.33440971 C321.05687683 308.3371709 314.11117847 308.341408 307.16547966 308.34591389 C287.94208711 308.35810684 268.71869567 308.36840641 249.49529934 308.37178898 C248.26467448 308.37200854 247.03404961 308.37222811 245.76613309 308.37245433 C244.53253534 308.37267261 243.29893759 308.37289089 242.0279581 308.37311578 C239.52814623 308.37355925 237.02833436 308.37400581 234.52852249 308.37445545 C232.66852614 308.3747876 232.66852614 308.3747876 230.77095411 308.37512645 C210.67148987 308.37907579 190.57206187 308.39653385 170.47261163 308.41981497 C149.8463334 308.44351389 129.22007336 308.45599015 108.59378129 308.4571569 C97.00899649 308.45807443 85.42425889 308.46384648 73.83948708 308.48197651 C63.9762932 308.49735772 54.11316111 308.50250963 44.24995752 308.49423841 C39.2162286 308.49032501 34.18262421 308.49129511 29.14891052 308.50529575 C24.54169457 308.51799317 19.93469725 308.51687385 15.32748178 308.50470504 C13.65992183 308.50274083 11.99234661 308.50585978 10.32480814 308.5145494 C8.05864683 308.52561173 5.79326125 308.51817528 3.52712154 308.50615788 C2.26823862 308.50675496 1.00935569 308.50735205 -0.2876752 308.50796723 C-6.91068486 307.80717715 -11.45133081 305.25164822 -15.81986618 300.13422108 C-17.68120039 297.05770076 -18.07128193 294.78488232 -18.07713509 291.20783901 C-18.08358398 290.21080727 -18.09003287 289.21377553 -18.09667718 288.18653071 C-18.09203138 286.54676644 -18.09203138 286.54676644 -18.08729172 284.87387562 C-18.09182283 283.71087889 -18.09635394 282.54788216 -18.10102236 281.34964311 C-18.11150386 278.12077295 -18.11299028 274.8920426 -18.11063361 271.6631608 C-18.1102258 268.18113161 -18.12126117 264.69913577 -18.13074875 261.21712208 C-18.1473672 254.39499528 -18.15285867 247.57290305 -18.1539735 240.75075771 C-18.15492355 235.20599056 -18.15903166 229.66123483 -18.16537476 224.11647129 C-18.18298923 208.39929648 -18.19221327 192.68214898 -18.19071381 176.96496423 C-18.1906339 176.11750844 -18.19055398 175.27005265 -18.19047165 174.39691639 C-18.19038989 173.54842705 -18.19030813 172.69993771 -18.19022389 171.82573657 C-18.18941086 158.07246217 -18.20855225 144.31929726 -18.23674838 130.56605454 C-18.26546526 116.44751618 -18.27928935 102.32903124 -18.27756083 88.21046293 C-18.27689653 80.28265439 -18.28240636 72.35496064 -18.30391693 64.42717838 C-18.322113 57.6776633 -18.32648909 50.92831503 -18.31289808 44.17878605 C-18.30636045 40.73494499 -18.30627938 37.2914241 -18.32360458 33.84761333 C-18.33897513 30.11429849 -18.32980189 26.38182965 -18.3143425 22.64853382 C-18.32462963 21.55981908 -18.33491675 20.47110435 -18.34551561 19.34939826 C-18.28983225 13.28166889 -17.87833537 9.74772333 -13.81986618 5.13422108 C-8.91806203 0.81596504 -6.5048586 0.00910414 0 0 Z M0.18013382 18.13422108 C0.18013382 107.89422108 0.18013382 197.65422108 0.18013382 290.13422108 C14.04013382 290.13422108 27.90013382 290.13422108 42.18013382 290.13422108 C42.84013382 286.50422108 43.50013382 282.87422108 44.18013382 279.13422108 C46.07975605 274.73419249 48.13790978 273.21969552 52.43013382 271.19672108 C54.02148148 270.4155492 54.02148148 270.4155492 55.64497757 269.61859608 C58.20532223 268.54353423 60.40931888 267.76443118 63.05904007 267.08734608 C70.26937652 265.17702115 70.26937652 265.17702115 75.46040726 260.14056873 C77.66828181 255.4064334 79.08186731 250.48529588 80.43159866 245.45160389 C81.19480702 243.08879447 82.20159459 241.12911754 83.41841507 238.97015858 C85.48879054 235.00338045 85.3940666 232.52004275 84.18013382 228.13422108 C83.13770161 225.40404147 81.937981 222.77115372 80.68013382 220.13422108 C77.45645387 213.37614504 74.96381851 206.9592373 77.12935257 199.37250233 C82.24810368 188.4689916 94.27024699 177.00501676 105.11763382 171.69672108 C114.06345844 170.05361043 121.42533833 173.68649957 129.33833694 177.42718983 C134.03527503 179.54593797 137.06064898 180.81215544 142.18013382 179.13422108 C144.24994008 178.26060155 146.2916735 177.3183587 148.30513382 176.32172108 C151.61779497 174.68224883 154.48161435 173.29525577 158.0934639 172.46259022 C164.40724369 170.9550071 164.40724369 170.9550071 169.00044632 166.64716053 C170.42364937 163.53849154 171.560856 160.44790093 172.61763382 157.19672108 C177.63487608 142.90904135 177.63487608 142.90904135 184.26607132 138.86078358 C195.26882257 134.68422902 214.96970503 135.56779727 225.86763382 139.44672108 C231.86278283 143.31455915 234.49076208 151.44843148 236.28950882 158.04437733 C238.18215747 165.07221696 238.18215747 165.07221696 242.94527054 170.3002367 C247.19175859 172.26062258 251.64021116 173.40079392 256.16109085 174.54584217 C259.73443866 175.58716844 262.82850858 177.45052555 266.00435257 179.34906483 C272.60790856 181.73203566 280.53941163 176.55941364 286.48482132 173.84125233 C292.67092778 171.20222526 297.58382153 170.57401547 304.18013382 172.13422108 C313.95796744 177.02313789 326.91807143 188.91780682 331.18013382 199.13422108 C333.36987166 208.62308504 329.36970043 216.50424454 325.48286819 224.95453358 C323.19145752 230.21382128 322.75034355 233.43989313 324.88350296 238.95160389 C325.73205681 240.97156119 326.6329139 242.95937526 327.55513382 244.94672108 C328.17124326 246.2846706 328.78320776 247.62453639 329.39107132 248.96625233 C329.85827591 249.97655506 329.85827591 249.97655506 330.33491898 251.00726795 C331.18013382 253.13422108 331.18013382 253.13422108 331.69331741 255.4799242 C332.53573652 259.20722413 333.15056957 261.43426716 336.39546585 263.64032459 C339.24314886 264.93712429 342.09265621 266.00266498 345.05513382 267.00922108 C347.03286589 267.7325939 349.0094699 268.45905986 350.98482132 269.18890858 C351.86122269 269.49296619 352.73762405 269.79702381 353.64058304 270.1102953 C357.9774824 271.8588971 361.36648645 273.51079669 363.43013382 277.82172108 C363.74466507 278.44433826 364.05919632 279.06695545 364.38325882 279.70843983 C365.18013382 282.13422108 365.18013382 282.13422108 366.18013382 290.13422108 C380.04013382 290.13422108 393.90013382 290.13422108 408.18013382 290.13422108 C408.18013382 200.37422108 408.18013382 110.61422108 408.18013382 18.13422108 C273.54013382 18.13422108 138.90013382 18.13422108 0.18013382 18.13422108 Z M191.18013382 156.13422108 C189.77598365 158.65438289 189.77598365 158.65438289 188.74263382 161.69281483 C188.32239944 162.80076405 187.90216507 163.90871326 187.46919632 165.0502367 C187.04380569 166.21232655 186.61841507 167.37441639 186.18013382 168.57172108 C185.33738008 170.86630966 184.48364988 173.15690433 183.61763382 175.44281483 C183.24509476 176.46173817 182.87255569 177.48066151 182.48872757 178.53046131 C180.35426177 182.77749075 177.92902527 183.87047062 173.51997757 185.42328358 C172.05382831 185.87285333 170.58628707 186.31790007 169.11763382 186.75922108 C161.22219134 189.21204808 153.97310753 192.43106304 146.72676468 196.41400623 C142.73995597 198.47275032 140.80562632 199.21163352 136.23482132 198.64593983 C134.86734944 198.18695904 133.5156367 197.67926673 132.18013382 197.13422108 C131.40717972 196.82178455 130.63422562 196.50934803 129.83784866 196.18744373 C126.49673313 194.78041338 123.19423777 193.29462973 119.89497757 191.7924242 C119.08673538 191.43728748 118.27849319 191.08215076 117.44575882 190.71625233 C116.72162796 190.38858875 115.9974971 190.06092518 115.25142288 189.72333241 C112.78323308 189.02133547 111.56094805 189.23065347 109.18013382 190.13422108 C105.61715366 192.88611632 102.42591304 196.01889922 99.18013382 199.13422108 C98.56396194 199.66660389 97.94779007 200.1989867 97.31294632 200.74750233 C95.61734476 202.24043431 95.61734476 202.24043431 94.18013382 205.13422108 C94.8599161 208.58978101 95.73861477 210.95944698 97.18013382 214.13422108 C98.11810086 216.23197169 99.04481312 218.33337822 99.95454788 220.44354725 C100.59317227 221.91848831 101.25076748 223.38539391 101.92915726 224.84247303 C104.14282663 229.8993606 104.76735518 233.78197895 103.18013382 239.13422108 C101.54341507 242.52875233 101.54341507 242.52875233 99.49263382 245.94672108 C95.644353 252.57831729 93.35108347 259.23734906 91.61104202 266.69989491 C90.47441405 270.95877217 89.3854409 273.45757712 85.64497757 275.93500233 C80.02172773 278.94934225 73.98075784 281.03778937 67.98677444 283.1830492 C67.1237471 283.50853748 66.26071976 283.83402576 65.37154007 284.16937733 C64.19893631 284.59295521 64.19893631 284.59295521 63.00264359 285.02509022 C60.67935071 286.14650568 60.67935071 286.14650568 60.18013382 290.13422108 C74.04013382 290.13422108 87.90013382 290.13422108 102.18013382 290.13422108 C103.66513382 281.22422108 103.66513382 281.22422108 105.18013382 272.13422108 C106.12860376 268.74577535 107.03340992 265.67911278 108.30513382 262.44672108 C108.60371292 261.66691883 108.90229202 260.88711658 109.20991898 260.08368397 C114.09549876 247.8272512 120.87812549 237.50932966 130.18013382 228.13422108 C131.02575882 227.24734608 131.87138382 226.36047108 132.74263382 225.44672108 C133.54700882 224.68359608 134.35138382 223.92047108 135.18013382 223.13422108 C135.98257523 222.35691639 135.98257523 222.35691639 136.80122757 221.56390858 C158.02215166 201.88712657 185.2990679 196.30436692 213.24995804 197.00238514 C239.5505617 198.18571508 263.29062068 211.96942566 281.13325882 230.67328358 C285.96958502 235.98961969 289.64191465 241.90465873 293.18013382 248.13422108 C294.02511429 249.59601795 294.02511429 249.59601795 294.88716507 251.08734608 C297.92719941 256.72102997 300.08746868 262.46258797 301.93013382 268.57172108 C302.12897171 269.22696766 302.3278096 269.88221424 302.53267288 270.55731678 C304.38223477 277.08868132 305.12529278 283.27775435 306.18013382 290.13422108 C320.04013382 290.13422108 333.90013382 290.13422108 348.18013382 290.13422108 C347.85013382 288.81422108 347.52013382 287.49422108 347.18013382 286.13422108 C344.87761705 284.69991255 344.87761705 284.69991255 341.97310257 283.66156483 C340.9115596 283.23681873 339.85001663 282.81207264 338.75630569 282.37445545 C337.63804398 281.94455311 336.51978226 281.51465076 335.36763382 281.07172108 C333.17160768 280.21096069 330.97751052 279.34525873 328.78560257 278.47406483 C327.80744583 278.09628895 326.82928909 277.71851307 325.82149124 277.32928944 C322.42057266 275.7905616 319.8692223 274.56565841 318.21040726 271.11981678 C317.98901077 270.35757801 317.76761429 269.59533924 317.53950882 268.81000233 C317.2771846 267.95358143 317.01486038 267.09716053 316.74458694 266.21478748 C316.47581741 265.30132557 316.20704788 264.38786366 315.93013382 263.44672108 C313.5137761 255.62584836 310.70790771 248.45555391 306.58150101 241.37372303 C304.04139138 236.79392282 303.82423254 234.16519068 305.18013382 229.13422108 C307.01173308 224.3339775 309.10315148 219.65090288 311.20552444 214.9642992 C311.61351273 214.01619373 312.02150101 213.06808826 312.44185257 212.09125233 C312.82301224 211.23507313 313.20417191 210.37889393 313.59688187 209.49676991 C314.41225188 207.13814926 314.41225188 207.13814926 313.38130569 204.94501209 C310.09097431 199.98477066 305.88506758 195.63636349 301.55513382 191.57172108 C301.02661819 191.07543201 300.49810257 190.57914295 299.95357132 190.06781483 C297.40880233 188.72816772 295.92862875 189.44187518 293.18013382 190.13422108 C291.68538235 190.69530853 290.20671392 191.30097081 288.74654007 191.94672108 C287.9324971 192.2999242 287.11845413 192.65312733 286.27974319 193.01703358 C284.59160817 193.76038479 282.90410447 194.50517141 281.21724319 195.25140858 C280.40191116 195.6046117 279.58657913 195.95781483 278.74654007 196.32172108 C278.0137886 196.64527576 277.28103714 196.96883045 276.52608109 197.30218983 C272.63614078 198.68182523 269.55550335 199.55879774 265.53389359 198.31732655 C264.21602859 197.66594715 264.21602859 197.66594715 262.87154007 197.00140858 C261.88371536 196.52719471 260.89589066 196.05298084 259.87813187 195.56439686 C258.84341751 195.05118885 257.80870316 194.53798084 256.74263382 194.00922108 C248.57038847 190.07629319 240.66844078 186.68474882 231.91060257 184.32953358 C227.86499984 182.55849719 226.77271386 179.54742118 225.10860062 175.57880116 C224.78544876 174.69603504 224.46229691 173.81326893 224.12935257 172.90375233 C223.57537796 171.45259022 223.57537796 171.45259022 223.01021194 169.9721117 C222.24606407 167.94875263 221.49611819 165.91997506 220.76021194 163.8861742 C218.73427608 158.26019808 218.73427608 158.26019808 214.39497757 154.47406483 C210.60014961 154.07291047 206.86756379 153.84178215 203.05513382 153.88422108 C202.00132523 153.87261951 202.00132523 153.87261951 200.92622757 153.86078358 C197.13342869 153.87512308 194.32198672 153.95918423 191.18013382 156.13422108 Z M144.18013382 239.13422108 C143.56525101 239.67433826 142.95036819 240.21445545 142.31685257 240.77093983 C130.37075048 251.67347438 122.88488458 268.43347275 120.18013382 284.13422108 C120.18013382 286.11422108 120.18013382 288.09422108 120.18013382 290.13422108 C175.62013382 290.13422108 231.06013382 290.13422108 288.18013382 290.13422108 C287.28702877 280.10068178 287.28702877 280.10068178 284.61763382 270.75922108 C284.22281815 269.67532093 284.22281815 269.67532093 283.8200264 268.56952381 C279.45885483 257.12286934 272.68083556 247.89959668 264.18013382 239.13422108 C263.64130569 238.52191639 263.10247757 237.9096117 262.54732132 237.27875233 C249.31590354 222.75078858 227.95909858 214.85346273 208.76216507 213.85297108 C183.49927486 213.07415365 162.35051379 221.77697343 144.18013382 239.13422108 Z " fill="#FFF" transform="translate(51.81986618041992,33.86577892303467)"/>
<path d="M0 0 C5.06024756 2.76501591 8.05580726 6.18736345 11.375 10.75 C11.82488281 11.35199219 12.27476562 11.95398438 12.73828125 12.57421875 C13.83411708 14.04310508 14.91829713 15.52067512 16 17 C20.830117 15.389961 22.71032549 11.05030152 25.55078125 6.98046875 C28.58698506 3.28569442 31.58923654 0.54643972 36.34375 -0.53125 C41.65749085 -0.45423926 44.94955784 0.23887514 49 4 C51.47835571 8.86285003 52.37697513 12.42843642 52.38818359 17.95751953 C52.39344055 18.61375305 52.39869751 19.26998657 52.40411377 19.94610596 C52.41720205 22.09192466 52.40861845 24.2369877 52.3984375 26.3828125 C52.40046098 27.88540793 52.4033747 29.3880024 52.40713501 30.89059448 C52.41154277 34.02920953 52.40517578 37.16756734 52.39111328 40.30615234 C52.37399241 44.32221931 52.38389028 48.337686 52.40183067 52.35373116 C52.41268538 55.4524689 52.409215 58.5510649 52.4014473 61.64980698 C52.39945147 63.13053331 52.40188281 64.61127267 52.40888596 66.0919838 C52.41653193 68.16209147 52.40485528 70.23123353 52.38818359 72.30126953 C52.38579681 73.47706573 52.38341003 74.65286194 52.38095093 75.86428833 C51.9566371 79.35693195 51.10618728 81.20608756 49 84 C45.24952518 86.50031654 43.44143734 86.53603554 39 86 C36.31762695 84.21411133 36.31762695 84.21411133 34 81 C33.24411856 77.05095605 33.27877759 73.14809144 33.29296875 69.13671875 C33.27784744 67.98959915 33.26272614 66.84247955 33.24714661 65.66059875 C33.20421583 62.00270004 33.19542582 58.34562572 33.1875 54.6875 C33.16436008 52.20505612 33.13899582 49.72263192 33.11132812 47.24023438 C33.04842237 41.16014848 33.01353099 35.08038544 33 29 C32.54109375 29.62648438 32.0821875 30.25296875 31.609375 30.8984375 C30.99578125 31.71570313 30.3821875 32.53296875 29.75 33.375 C29.14671875 34.18710938 28.5434375 34.99921875 27.921875 35.8359375 C25.40149325 38.67392834 23.36774684 39.80589731 19.6328125 40.3359375 C13.88261695 40.42550441 10.43543671 40.02283795 6 36 C5.08279229 34.80341958 4.19381256 33.58475271 3.33203125 32.34765625 C2.89221924 31.71996338 2.45240723 31.09227051 1.99926758 30.44555664 C1.66950928 29.96852295 1.33975098 29.49148926 1 29 C0.99857498 29.6403569 0.99714996 30.28071381 0.99568176 30.94047546 C0.97598853 37.60813173 0.92172247 44.27487206 0.84741211 50.94213867 C0.82422144 53.43002755 0.80983393 55.91801474 0.80444336 58.40600586 C0.7951622 61.98353427 0.75418589 65.55951379 0.70703125 69.13671875 C0.71293022 70.80416389 0.71293022 70.80416389 0.71894836 72.5052948 C0.57353802 80.20920999 0.57353802 80.20920999 -2.32543945 84.20629883 C-5.86444639 86.57974328 -7.81584615 86.6724533 -12 86 C-15.38939556 83.86320715 -16.72582557 82.8225233 -18 79 C-18.10455328 76.84463926 -18.148649 74.68617931 -18.16113281 72.52832031 C-18.16609772 71.87588348 -18.17106262 71.22344666 -18.17617798 70.55123901 C-18.19077747 68.39352357 -18.19759887 66.23588172 -18.203125 64.078125 C-18.20887953 62.57460529 -18.21463722 61.0710856 -18.22039795 59.56756592 C-18.23090251 56.41353006 -18.23674832 53.25951964 -18.24023438 50.10546875 C-18.24570935 46.07609066 -18.26971802 42.04705214 -18.29820633 38.0177803 C-18.31689073 34.91041097 -18.32204144 31.80312235 -18.32357025 28.6957016 C-18.32658567 27.21102803 -18.33457651 25.7263555 -18.34775543 24.24173737 C-18.36493366 22.15732015 -18.36290742 20.07371833 -18.35644531 17.98925781 C-18.36009094 16.80583801 -18.36373657 15.62241821 -18.36749268 14.40313721 C-17.7985101 9.13411857 -16.3428368 5.24691989 -12.375 1.5625 C-8.17395551 -0.382428 -4.55121455 -1.03160863 0 0 Z " fill="#FFF" transform="translate(239,68)"/>
<path d="M0 0 C2.875 2.5 2.875 2.5 5 5 C5.598125 5.598125 6.19625 6.19625 6.8125 6.8125 C8.62757445 10.1560582 8.75930717 13.34809407 8 17 C5.9375 20 5.9375 20 3 22 C-1.32438094 22.69498979 -3.23197622 22.49022795 -6.9375 20.125 C-9 18 -9 18 -9 16 C-15.00069536 14.67709741 -15.00069536 14.67709741 -20.5625 16.5625 C-22.39039788 19.66197902 -22.52779476 21.45623519 -22 25 C-19.20671562 29.07778741 -14.22652674 29.37745751 -9.71289062 30.37304688 C-1.848337 32.2545567 3.47225429 36.46882698 8 43 C11.60774157 49.49933968 12.14370122 56.44561834 10.34375 63.61328125 C7.87134784 70.63618221 4.20062445 75.58428253 -2.2890625 79.31640625 C-9.15716981 82.44521069 -16.16731 83.42093244 -23.484375 81.26953125 C-30.03751796 78.57570571 -36.06212181 74.69183366 -39 68 C-39.40001246 64.07987791 -39.23646403 61.29584173 -37 58 C-33.33284462 55.55522975 -30.26257818 55.15749433 -26 56 C-23.1875 58.375 -23.1875 58.375 -21 61 C-18.11487022 63.34522935 -18.11487022 63.34522935 -14.5 62.875 C-11.03644603 62.28197404 -11.03644603 62.28197404 -9 60.3125 C-7.61093775 57.10029355 -7.94478626 55.3063364 -9 52 C-11.9283517 49.24932357 -14.18808082 48.61792119 -18.125 48.1875 C-25.27087784 47.00447082 -31.19659602 44.33901368 -35.921875 38.7109375 C-41.20791727 30.98324713 -41.86536109 24.30014505 -41 15 C-38.69694312 7.24396539 -34.15513907 1.93463545 -27.1953125 -2.02734375 C-18.3503749 -6.00940072 -8.12146199 -5.15304262 0 0 Z " fill="#FFF" transform="translate(348,72)"/>
<path d="M0 0 C6.82115532 3.93102295 11.28740562 9.35385208 13.5625 16.9375 C14.65387678 26.40957251 14.65387678 26.40957251 11.6875 30.5625 C8.07190414 32.9020032 5.90997391 33.36372293 1.5625 32.9375 C-1.63430308 31.30192633 -3.08624958 29.91407068 -4.30859375 26.515625 C-4.8016009 24.7479517 -5.25529278 22.9687186 -5.6640625 21.1796875 C-6.30454242 18.58869898 -6.30454242 18.58869898 -9.4375 16.9375 C-12.8478976 16.72435015 -15.18281799 16.852606 -18.4375 17.9375 C-20.70239288 24.0438489 -19.74353975 31.74427784 -19.78759766 38.19995117 C-19.80418379 39.98165932 -19.83150889 41.76330021 -19.86962891 43.54467773 C-19.92444243 46.12258155 -19.94627238 48.69893551 -19.9609375 51.27734375 C-19.98360687 52.07019272 -20.00627625 52.86304169 -20.02963257 53.67991638 C-20.01355788 57.8959444 -19.76913618 59.49940966 -17.13525391 62.97875977 C-14.4958196 65.29858703 -14.4958196 65.29858703 -10.75 64.9375 C-7.18210887 64.24366669 -7.18210887 64.24366669 -5.4375 60.9375 C-4.94636911 59.4479162 -4.49006646 57.9465581 -4.0625 56.4375 C-3.16537613 53.70615752 -2.56237543 52.08467461 -0.6875 49.875 C2.65708851 48.48142145 4.97662371 48.43421912 8.5625 48.9375 C11.5 50.75 11.5 50.75 13.5625 53.9375 C14.92918875 60.84872279 13.53323127 66.65186602 10.109375 72.7109375 C6.01593962 78.60300358 0.61904402 82.4708929 -6.4375 83.9375 C-14.8503965 84.98474853 -21.47909652 83.90950802 -28.4375 78.9375 C-34.05838278 73.96354901 -37.79169759 68.1624246 -38.72737122 60.5922699 C-38.84766579 58.01811392 -38.87959579 55.45976207 -38.87109375 52.8828125 C-38.8763356 51.94122284 -38.88157745 50.99963318 -38.88697815 50.0295105 C-38.89336944 48.04784119 -38.89209909 46.0661338 -38.88354492 44.08447266 C-38.87504313 41.07775207 -38.90382409 38.07293933 -38.93554688 35.06640625 C-38.93715955 33.1302089 -38.93658008 31.19400822 -38.93359375 29.2578125 C-38.94482773 28.3720755 -38.95606171 27.4863385 -38.96763611 26.57376099 C-38.88370341 18.92989374 -36.67144262 12.66073769 -32.75 6.125 C-23.96591199 -2.18427244 -11.19963453 -5.19131996 0 0 Z " fill="#FFF" transform="translate(191.4375,70.0625)"/>
<path d="M0 0 C0.89110474 -0.00241196 1.78220947 -0.00482391 2.70031738 -0.00730896 C4.57971661 -0.00633178 6.45914507 0.00703114 8.33837891 0.03198242 C11.2096568 0.06629758 14.07785638 0.05263414 16.94921875 0.03320312 C18.77865889 0.04010187 20.60809111 0.04977452 22.4375 0.0625 C23.72049988 0.0550602 23.72049988 0.0550602 25.02941895 0.04747009 C29.04830465 0.12659687 31.22706634 0.33226507 34.73632812 2.44946289 C37.48952202 5.47628086 37.71875 7.57942298 37.71875 11.62890625 C36.13036066 15.20278227 35.00240642 16.43980197 31.71875 18.62890625 C29.83511353 18.90306091 29.83511353 18.90306091 27.69384766 18.93530273 C26.88936188 18.95129013 26.0848761 18.96727753 25.25601196 18.98374939 C23.95752823 18.99179344 23.95752823 18.99179344 22.6328125 19 C21.73887787 19.00902847 20.84494324 19.01805695 19.92391968 19.02735901 C18.03264721 19.04186602 16.1413245 19.05074937 14.25 19.05444336 C11.36111554 19.06633477 8.47437075 19.11550993 5.5859375 19.16601562 C3.74740625 19.17548061 1.90886189 19.18271529 0.0703125 19.1875 C-0.79129486 19.20703232 -1.65290222 19.22656464 -2.5406189 19.24668884 C-6.9806382 19.21340621 -8.72627133 19.0677152 -12.32421875 16.22290039 C-14.21498943 13.71673292 -14.96818431 12.70084798 -14.90625 9.62890625 C-14.91914063 8.98953125 -14.93203125 8.35015625 -14.9453125 7.69140625 C-12.52992167 0.18948648 -6.71519907 -0.10408986 0 0 Z " fill="#FFF" transform="translate(398.28125,135.37109375)"/>
<path d="M0 0 C0.87173859 -0.00428513 1.74347717 -0.00857025 2.64163208 -0.01298523 C4.48585136 -0.01872786 6.33009329 -0.01922928 8.17431641 -0.01489258 C10.99030446 -0.01173836 13.80523605 -0.03517213 16.62109375 -0.06054688 C18.41406118 -0.06282051 20.20703142 -0.06352307 22 -0.0625 C22.83973358 -0.07170975 23.67946716 -0.08091949 24.54464722 -0.09040833 C29.22220161 -0.05356382 32.34001479 0.2495271 36.1328125 3.30078125 C37.71179303 6.45874232 37.95209421 9.90748761 37.1328125 13.30078125 C35.12026119 15.97663404 33.4947303 17.98383772 30.13070679 18.76670837 C27.69105307 18.94581972 25.29755125 18.96760188 22.8515625 18.9296875 C21.96045776 18.93209946 21.06935303 18.93451141 20.15124512 18.93699646 C18.27184589 18.93601928 16.39241743 18.92265636 14.51318359 18.89770508 C11.6419057 18.86338992 8.77370612 18.87705336 5.90234375 18.89648438 C4.07290361 18.88958563 2.24347139 18.87991298 0.4140625 18.8671875 C-0.86893738 18.8746273 -0.86893738 18.8746273 -2.17785645 18.88221741 C-6.19674215 18.80309063 -8.37550384 18.59742243 -11.88476562 16.48022461 C-14.63795952 13.45340664 -14.8671875 11.35026452 -14.8671875 7.30078125 C-11.68779905 0.14715724 -7.15284901 -0.00772612 0 0 Z " fill="#FFF" transform="translate(90.8671875,135.69921875)"/>
</svg>
