<?xml version="1.0" encoding="UTF-8"?>
<svg version="1.1" xmlns="http://www.w3.org/2000/svg" width="98" height="99">
<path d="M0 0 C0.78273788 -0.0087616 1.56547577 -0.01752319 2.37193298 -0.02655029 C4.95099857 -0.04849925 7.52833986 -0.03400882 10.10742188 -0.01708984 C11.9043409 -0.0204593 13.70125771 -0.02531301 15.49816895 -0.03158569 C19.26088193 -0.03895088 23.02300072 -0.02826321 26.78564453 -0.00488281 C31.60468084 0.0236051 36.42232487 0.00719918 41.24131012 -0.02274513 C44.95089171 -0.04082788 48.66014412 -0.03505567 52.36973572 -0.02210617 C54.14631821 -0.01877484 55.92293076 -0.02284965 57.69947815 -0.03450394 C60.1845698 -0.04722931 62.66741884 -0.02781507 65.15234375 0 C66.24971107 -0.01518173 66.24971107 -0.01518173 67.36924744 -0.03067017 C71.21352055 0.04889729 72.94494697 0.54448751 76.00891113 2.93740845 C78.87996299 6.70050382 79.18715941 9.33772068 79.265625 13.953125 C79.28234253 14.79434906 79.29906006 15.63557312 79.31628418 16.50228882 C79.32985962 17.40339386 79.34343506 18.3044989 79.35742188 19.23291016 C79.3758313 20.16745026 79.39424072 21.10199036 79.41320801 22.06484985 C79.47187767 25.05049433 79.52470955 28.03619579 79.57617188 31.02197266 C79.64405605 34.94656639 79.717773 38.87098887 79.79492188 42.79541016 C79.80849731 43.69246674 79.82207275 44.58952332 79.83605957 45.51376343 C79.92461906 50.00346292 80.28005798 54.21624004 81.07617188 58.64697266 C80.63867188 61.02197266 80.63867188 61.02197266 80.07617188 62.64697266 C81.72617188 63.30697266 83.37617187 63.96697266 85.07617188 64.64697266 C85.07617188 67.94697266 85.07617188 71.24697266 85.07617188 74.64697266 C83.42617187 74.97697266 81.77617188 75.30697266 80.07617188 75.64697266 C80.20636719 76.23865234 80.3365625 76.83033203 80.47070312 77.43994141 C81.23286452 81.80634266 81.57955925 83.85129583 79.13867188 87.70947266 C75.9835125 89.7055939 75.42526293 89.84604257 71.95117188 89.64697266 C70.67242187 89.64697266 69.39367187 89.64697266 68.07617188 89.64697266 C67.60179688 90.47197266 67.12742187 91.29697266 66.63867188 92.14697266 C66.12304688 92.97197266 65.60742188 93.79697266 65.07617188 94.64697266 C62.03127028 95.2299185 59.12486709 95.19654769 56.07617188 94.64697266 C55.41617188 93.98697266 54.75617188 93.32697266 54.07617188 92.64697266 C54.07617188 91.65697266 54.07617188 90.66697266 54.07617188 89.64697266 C53.40070313 89.69337891 52.72523437 89.73978516 52.02929688 89.78759766 C44.86250466 90.07758347 44.86250466 90.07758347 41.45117188 88.20947266 C40.07617188 85.64697266 40.07617188 85.64697266 40.07617188 76.64697266 C34.13617188 76.31697266 28.19617187 75.98697266 22.07617188 75.64697266 C22.07617188 74.32697266 22.07617188 73.00697266 22.07617188 71.64697266 C26.36617187 71.64697266 30.65617187 71.64697266 35.07617188 71.64697266 C35.07617188 69.66697266 35.07617188 67.68697266 35.07617188 65.64697266 C36.95117188 63.77197266 36.95117188 63.77197266 39.07617188 62.64697266 C39.73617187 62.64697266 40.39617188 62.64697266 41.07617188 62.64697266 C40.95757812 62.04369141 40.83898438 61.44041016 40.71679688 60.81884766 C39.68364851 54.4133278 39.68364851 54.4133278 41.38867188 51.08447266 C45.50314742 48.88370667 49.50615278 49.33300188 54.07617188 49.64697266 C54.22054687 49.00759766 54.36492187 48.36822266 54.51367188 47.70947266 C55.07617188 45.64697266 55.07617188 45.64697266 56.07617188 44.64697266 C57.59545225 44.57517302 59.11784669 44.56305258 60.63867188 44.58447266 C61.46496094 44.59349609 62.29125 44.60251953 63.14257812 44.61181641 C63.78066406 44.62341797 64.41875 44.63501953 65.07617188 44.64697266 C66.06617187 47.12197266 66.06617187 47.12197266 67.07617188 49.64697266 C69.38617188 49.64697266 71.69617188 49.64697266 74.07617188 49.64697266 C74.07617188 43.37697266 74.07617188 37.10697266 74.07617188 30.64697266 C46.68617187 30.64697266 19.29617187 30.64697266 -8.92382812 30.64697266 C-10.75774133 51.98437272 -10.75774133 51.98437272 -4.92382812 70.64697266 C-1.50755281 71.34970042 -1.50755281 71.34970042 2.26367188 71.39697266 C4.17212891 71.48205078 4.17212891 71.48205078 6.11914062 71.56884766 C7.09496094 71.59462891 8.07078125 71.62041016 9.07617188 71.64697266 C9.40617187 72.96697266 9.73617188 74.28697266 10.07617188 75.64697266 C7.17876566 75.78236547 4.28771566 75.88124094 1.38867188 75.95947266 C0.57205078 76.00136719 -0.24457031 76.04326172 -1.0859375 76.08642578 C-2.27993164 76.1105957 -2.27993164 76.1105957 -3.49804688 76.13525391 C-4.5899231 76.17453003 -4.5899231 76.17453003 -5.70385742 76.21459961 C-9.17195701 75.3278371 -10.6580167 73.35268234 -12.92382812 70.64697266 C-13.55874634 67.61169434 -13.55874634 67.61169434 -13.57080078 64.19189453 C-13.58656158 62.90706177 -13.60232239 61.622229 -13.61856079 60.29846191 C-13.60961071 58.90420674 -13.59935564 57.50995942 -13.58789062 56.11572266 C-13.59126144 54.67752676 -13.59611627 53.23933364 -13.60238647 51.80114746 C-13.60974555 48.79163404 -13.59908503 45.78286425 -13.57568359 42.7734375 C-13.54719447 38.92282675 -13.56360389 35.07395842 -13.59354591 31.22341156 C-13.61164614 28.25497394 -13.60584881 25.28694694 -13.59290695 22.3184967 C-13.58958037 20.89917289 -13.59363377 19.47981134 -13.60530472 18.06053162 C-13.61805434 16.07437896 -13.59516321 14.08809494 -13.57080078 12.10205078 C-13.56682281 10.97351685 -13.56284485 9.84498291 -13.55874634 8.68225098 C-11.99514599 1.20733194 -6.85018918 -0.09477022 0 0 Z M-8.92382812 9.64697266 C-8.92382812 14.92697266 -8.92382812 20.20697266 -8.92382812 25.64697266 C18.46617188 25.64697266 45.85617188 25.64697266 74.07617188 25.64697266 C75.36241126 11.81887965 75.36241126 11.81887965 71.07617188 5.64697266 C68.41571742 5.13490955 66.37932597 4.97164869 63.71484375 5.01586914 C62.59487755 5.00513618 62.59487755 5.00513618 61.45228577 4.9941864 C58.98254331 4.97726786 56.51460817 4.99671813 54.04492188 5.01806641 C52.3300359 5.01723799 50.61515001 5.01477963 48.90026855 5.01075745 C45.30550243 5.00789731 41.71135863 5.02262106 38.11669922 5.05004883 C33.50604272 5.0841325 28.89649926 5.07811575 24.28578949 5.05938625 C20.74443262 5.04882372 17.2033353 5.05774717 13.66200256 5.07277107 C11.96192699 5.07795887 10.26182437 5.07746383 8.56175232 5.07122612 C6.18640755 5.06578269 3.81266253 5.08611825 1.4375 5.11352539 C0.7329921 5.10699951 0.02848419 5.10047363 -0.69737244 5.09375 C-5.5851659 5.18977685 -5.74174244 5.40419174 -8.92382812 9.64697266 Z M59.07617188 49.64697266 C58.74617188 50.63697266 58.41617188 51.62697266 58.07617188 52.64697266 C54.65177907 54.87680983 52.81114229 55.71502547 48.70117188 55.33447266 C47.83492187 55.10759766 46.96867187 54.88072266 46.07617188 54.64697266 C46.07617188 55.63697266 46.07617188 56.62697266 46.07617188 57.64697266 C45.61767322 60.79096344 45.08225763 63.6287154 44.07617188 66.64697266 C42.01367188 67.33447266 42.01367188 67.33447266 40.07617188 67.64697266 C40.07617188 68.96697266 40.07617188 70.28697266 40.07617188 71.64697266 C41.00429688 71.73978516 41.00429688 71.73978516 41.95117188 71.83447266 C44.07617188 72.64697266 44.07617188 72.64697266 45.38867188 74.83447266 C46.18971219 78.11145576 45.83435548 80.38678314 45.07617188 83.64697266 C46.39617188 83.64697266 47.71617188 83.64697266 49.07617188 83.64697266 C52.40571423 84.14640401 55.2246463 84.81384907 58.07617188 86.64697266 C58.40617187 87.63697266 58.73617187 88.62697266 59.07617188 89.64697266 C60.06617187 89.64697266 61.05617188 89.64697266 62.07617188 89.64697266 C62.07617188 88.32697266 62.07617188 87.00697266 62.07617188 85.64697266 C63.74283854 85.31363932 65.40950521 84.98030599 67.07617188 84.64697266 C67.94242188 84.46134766 68.80867188 84.27572266 69.70117188 84.08447266 C72.07617188 83.64697266 72.07617188 83.64697266 75.07617188 83.64697266 C75.40617187 79.68697266 75.73617187 75.72697266 76.07617188 71.64697266 C77.72617188 71.64697266 79.37617187 71.64697266 81.07617188 71.64697266 C81.07617188 70.32697266 81.07617188 69.00697266 81.07617188 67.64697266 C80.14804688 67.55416016 80.14804688 67.55416016 79.20117188 67.45947266 C77.07617188 66.64697266 77.07617188 66.64697266 75.82617188 64.45947266 C75.01208476 61.40664597 74.92985422 58.79280231 75.07617188 55.64697266 C74.08617187 55.31697266 73.09617188 54.98697266 72.07617188 54.64697266 C72.07617188 55.30697266 72.07617188 55.96697266 72.07617188 56.64697266 C70.59162381 56.05615252 69.11362837 55.44884611 67.63867188 54.83447266 C66.81496094 54.49802734 65.99125 54.16158203 65.14257812 53.81494141 C63.07617188 52.64697266 63.07617188 52.64697266 62.07617188 49.64697266 C61.08617188 49.64697266 60.09617187 49.64697266 59.07617188 49.64697266 Z " fill="#FFF" transform="translate(12.923828125,3.35302734375)"/>
<path d="M0 0 C1.05960938 -0.00386719 2.11921875 -0.00773438 3.2109375 -0.01171875 C4.86996094 0.00568359 4.86996094 0.00568359 6.5625 0.0234375 C8.22152344 0.00603516 8.22152344 0.00603516 9.9140625 -0.01171875 C10.97367188 -0.00785156 12.03328125 -0.00398437 13.125 0 C14.58099609 0.00507568 14.58099609 0.00507568 16.06640625 0.01025391 C18.96504578 0.46103998 19.82769709 1.08002123 21.5625 3.3984375 C22.4375 5.7734375 22.4375 5.7734375 22.5625 8.3984375 C20.36847015 12.99545243 20.36847015 12.99545243 17.5625 14.3984375 C13.96542849 14.71855539 10.35956201 14.72276082 6.75 14.7734375 C5.25243164 14.82951172 5.25243164 14.82951172 3.72460938 14.88671875 C-3.64507822 14.97509608 -3.64507822 14.97509608 -7.63671875 12.0703125 C-9.4375 9.3984375 -9.4375 9.3984375 -9.4375 6.2734375 C-7.5997794 0.98999077 -5.48951682 0.01913676 0 0 Z M-3.4375 5.3984375 C-3.7675 6.0584375 -4.0975 6.7184375 -4.4375 7.3984375 C-4.1075 8.0584375 -3.7775 8.7184375 -3.4375 9.3984375 C3.1625 9.3984375 9.7625 9.3984375 16.5625 9.3984375 C16.8925 8.4084375 17.2225 7.4184375 17.5625 6.3984375 C16.56766798 5.18200458 16.56766798 5.18200458 14.61303711 5.28491211 C13.3640564 5.29276733 13.3640564 5.29276733 12.08984375 5.30078125 C10.74116211 5.30561523 10.74116211 5.30561523 9.36523438 5.31054688 C8.41970703 5.31892578 7.47417969 5.32730469 6.5 5.3359375 C5.55060547 5.34044922 4.60121094 5.34496094 3.62304688 5.34960938 C1.26946935 5.3614364 -1.08398477 5.37791725 -3.4375 5.3984375 Z " fill="#FFF" transform="translate(59.4375,11.6015625)"/>
<path d="M0 0 C3.3483456 1.71310705 5.45076672 4.11645081 7.4375 7.3125 C8.23177874 11.10738731 8.31246516 14.36056957 7 18 C4.56676656 21.41519115 1.873302 23.57793889 -2.25390625 24.5078125 C-7.54805944 24.77655124 -10.98482923 23.62344679 -15 20 C-17.32277854 16.09350882 -17.47123693 12.47675079 -17 8 C-13.09305228 0.60470611 -8.10107365 -1.37591892 0 0 Z M-10 6 C-12.32749345 9.49124017 -12.50299316 10.89222251 -12 15 C-10.56338689 17.52006844 -10.56338689 17.52006844 -8 19 C-4.5 19.75 -4.5 19.75 -1 19 C1.65884601 17.00979883 1.65884601 17.00979883 3 14 C2.93486645 10.74332232 2.60385762 8.83389862 0.6875 6.1875 C-3.22696789 3.43287445 -5.81673264 3.79828034 -10 6 Z " fill="#FFF" transform="translate(78,61)"/>
<path d="M0 0 C2.375 1.625 2.375 1.625 4 4 C4.5625 7 4.5625 7 4 10 C1.57904909 12.62846098 -0.04614692 13.81388233 -3.5625 14.5 C-6.88912957 13.81761445 -8.04078918 12.75740782 -10 10 C-10.61195145 6.3282913 -10.48706506 4.71186432 -8.375 1.625 C-5.28813568 -0.48706506 -3.6717087 -0.61195145 0 0 Z M-4 5 C-4 6.32 -4 7.64 -4 9 C-3.01 8.67 -2.02 8.34 -1 8 C-1.33 7.01 -1.66 6.02 -2 5 C-2.66 5 -3.32 5 -4 5 Z " fill="#FFF" transform="translate(21,12)"/>
<path d="M0 0 C2.4375 2.125 2.4375 2.125 4 5 C4 8.50732933 3.6345092 10.2434698 1.375 12.9375 C-2.07517724 14.48100034 -4.39999716 13.93333407 -8 13 C-10.46943529 9.29584707 -10.46913089 7.37855495 -10 3 C-7.16943492 -0.37490452 -4.24049673 -0.70674945 0 0 Z M-5 5 C-5 6.32 -5 7.64 -5 9 C-3.68 8.67 -2.36 8.34 -1 8 C-1.33 7.01 -1.66 6.02 -2 5 C-2.99 5 -3.98 5 -5 5 Z " fill="#FFF" transform="translate(38,12)"/>
<path d="M0 0 C1.32 0.33 2.64 0.66 4 1 C3.35455571 4.48539917 1.89865603 7.02819057 0 10 C0.680625 10.5775 1.36125 11.155 2.0625 11.75 C2.701875 12.4925 3.34125 13.235 4 14 C3.75 16.25 3.75 16.25 3 18 C-0.66128752 17.79078357 -2.47948819 16.85141649 -4.875 14.1875 C-7 11 -7 11 -6.82421875 9.03515625 C-5.86314618 6.66208132 -4.65125243 5.14606652 -2.9375 3.25 C-2.38964844 2.63640625 -1.84179688 2.0228125 -1.27734375 1.390625 C-0.85582031 0.93171875 -0.43429688 0.4728125 0 0 Z " fill="#FFF" transform="translate(17,45)"/>
<path d="M0 0 C3.83690637 1.56318408 6.39154889 3.7953315 9 7 C9.18783057 10.66269605 7.66934052 12.58824768 5.4375 15.3125 C4.2309375 16.6428125 4.2309375 16.6428125 3 18 C1.35 17.67 -0.3 17.34 -2 17 C-0.80100302 13.9168649 0.47700477 10.93720508 2 8 C0.68 6.68 -0.64 5.36 -2 4 C-1.34 2.68 -0.68 1.36 0 0 Z " fill="#FFF" transform="translate(39,45)"/>
<path d="M0 0 C1.65 0.33 3.3 0.66 5 1 C3.68 7.27 2.36 13.54 1 20 C-0.32 20.33 -1.64 20.66 -3 21 C-3.33 20.67 -3.66 20.34 -4 20 C-3.55105995 13.04142926 -1.98237956 6.67027085 0 0 Z " fill="#FFF" transform="translate(29,44)"/>
<path d="M0 0 C1.32 0 2.64 0 4 0 C4 1.32 4 2.64 4 4 C2.68 4 1.36 4 0 4 C0 2.68 0 1.36 0 0 Z " fill="#FFF" transform="translate(27,75)"/>
</svg>
